<?xml version="1.0" encoding="UTF-8"?>
<svg version="1.1" xmlns="http://www.w3.org/2000/svg" width="857" height="89">
<path d="M0 0 C0 1.98 0 3.96 0 6 C-8.83275064 6.42919831 -17.66620512 6.8429358 -26.5 7.25 C-27.58453838 7.30007895 -27.58453838 7.30007895 -28.69098663 7.35116959 C-49.41227906 8.30566144 -70.13495317 9.13107721 -90.8671875 9.80859375 C-179.8387428 12.73265268 -268.77457323 16.87816417 -414.77098083 25.98143005 C-433.3231185 27.22881165 -451.87910423 28.41213289 -470.4375 29.5625 C-471.65854557 29.63819717 -471.65854557 29.63819717 -472.90425873 29.71542358 C-547.31452204 34.32034575 -621.75725971 38.40032161 -696.30908203 39.65917969 C-697.18140976 39.67530807 -698.05373749 39.69143646 -698.95249939 39.70805359 C-700.54762217 39.73734828 -702.14281001 39.76339914 -703.73805237 39.78523254 C-707.34467616 39.85402457 -710.83495825 40.07696867 -714.40942383 40.57788086 C-718 41 -718 41 -720 40 C-721.54995952 36.90008095 -721.3705824 34.39700537 -721 31 C-717.72644194 28.81762796 -716.87385202 28.76209076 -713.09619141 28.81567383 C-712.09155853 28.82378586 -711.08692566 28.83189789 -710.05184937 28.84025574 C-708.40583237 28.86712212 -708.40583237 28.86712212 -706.7265625 28.89453125 C-704.34278519 28.9137866 -701.95899474 28.931465 -699.57519531 28.94775391 C-697.70353699 28.96349457 -697.70353699 28.96349457 -695.79406738 28.97955322 C-689.64067377 29.01271475 -683.48894001 28.95423393 -677.3359375 28.88671875 C-676.07064209 28.87290665 -674.80534668 28.85909454 -673.50170898 28.84486389 C-612.56177502 28.12766477 -551.8746472 25.02567507 -491.0625 21.125 C-404.79715617 15.5924724 -318.49672075 11.40580181 -97.41406578 2.30906761 C-93.05269588 2.146494 -88.69138406 1.98247159 -84.33011979 1.81708896 C-25.0146387 -0.4316998 -25.0146387 -0.4316998 0 0 Z " fill="#E98D3E" transform="translate(836,44)"/>
<path d="M0 0 C1.71484234 0.00505998 3.42968624 0.00961441 5.14453125 0.01367188 C9.17972949 0.02424317 13.21484467 0.04121754 17.25 0.0625 C17.25 1.7125 17.25 3.3625 17.25 5.0625 C5.03871375 6.07580198 -7.16610921 6.34147632 -19.41331482 6.57167816 C-23.20071067 6.6431598 -26.98798819 6.71934248 -30.77526855 6.79669189 C-35.61921645 6.89558236 -40.46317769 6.99373012 -45.3071655 7.09064651 C-61.45512395 7.41395573 -77.6026947 7.75496878 -93.75 8.109375 C-94.56553636 8.1272683 -95.38107272 8.14516159 -96.2213223 8.16359711 C-123.40060359 8.76171807 -150.57565739 9.47525117 -177.75 10.265625 C-178.65092605 10.29182678 -179.5518521 10.31802857 -180.48007894 10.34502435 C-193.33096066 10.71922106 -206.18167214 11.09913817 -219.03235483 11.4800992 C-234.80140929 11.94747864 -250.57052681 12.4126468 -266.33984375 12.87109375 C-267.70058144 12.91065961 -267.70058144 12.91065961 -269.08880877 12.95102477 C-304.99402968 13.9934283 -340.90161303 14.8343245 -376.81403732 15.58204269 C-388.38781873 15.82327873 -399.96153418 16.06764163 -411.53515625 16.31640625 C-412.20475829 16.33079569 -412.87436032 16.34518514 -413.56425333 16.36001062 C-446.55696567 17.07055229 -479.54503148 17.94376423 -512.53225827 18.87255234 C-517.67534856 19.017176 -522.81851568 19.15875746 -527.96173096 19.29885864 C-558.19850065 20.12451671 -588.41924796 21.13465498 -618.6328125 22.5859375 C-620.55429957 22.67811554 -620.55429957 22.67811554 -622.51460457 22.77215576 C-667.4736098 24.94997822 -712.0594023 28.59097251 -756.76707649 33.75675011 C-760.23758146 34.15738801 -763.70856713 34.553781 -767.17955017 34.95025253 C-769.56824707 35.22558222 -771.9559191 35.50876064 -774.34362793 35.79251099 C-792.0189686 37.84992621 -792.0189686 37.84992621 -798.75 37.0625 C-800.75 35.0625 -800.75 35.0625 -801 32.5625 C-800.75 30.0625 -800.75 30.0625 -798.75 28.0625 C-796.95425415 27.59080505 -796.95425415 27.59080505 -794.75634766 27.27905273 C-793.52058487 27.10056541 -793.52058487 27.10056541 -792.25985718 26.91847229 C-791.36199493 26.79971237 -790.46413269 26.68095245 -789.5390625 26.55859375 C-788.60019196 26.43020615 -787.66132141 26.30181854 -786.69400024 26.16954041 C-776.20094433 24.78338897 -765.67641659 23.92114832 -755.125 23.125 C-752.95230198 22.95723199 -750.77961345 22.78934099 -748.60693359 22.62133789 C-742.8325189 22.17841092 -737.05723406 21.74814381 -731.28149414 21.32287598 C-727.7805966 21.06475588 -724.27994252 20.80350365 -720.77929688 20.54199219 C-693.32553839 18.50412504 -665.86586811 16.79567156 -638.36328125 15.578125 C-637.65598963 15.54664423 -636.94869802 15.51516346 -636.21997333 15.48272872 C-598.08615794 13.79123693 -559.9342667 12.9362518 -521.77412665 12.08687323 C-509.80742039 11.82006436 -497.84096893 11.54236581 -485.87451172 11.26464844 C-481.17651429 11.1557045 -476.47851595 11.04680017 -471.78051758 10.93789673 C-470.5860623 10.91019703 -469.39160703 10.88249733 -468.16095614 10.85395825 C-459.40086602 10.65090933 -450.64074534 10.44921008 -441.88061523 10.24789429 C-377.05536679 8.75690177 -312.23188778 7.19127149 -247.40827274 5.6311655 C-243.61795621 5.53994603 -239.82763964 5.44872809 -236.037323 5.35751343 C-235.1006784 5.3349729 -234.16403381 5.31243237 -233.19900604 5.28920879 C-217.20962089 4.90445427 -201.22020681 4.52091405 -185.23078054 4.13787204 C-183.38012468 4.09353779 -181.52946883 4.04920328 -179.67881298 4.00486851 C-178.76695456 3.98302387 -177.85509613 3.96117924 -176.91560563 3.93867265 C-165.29120919 3.66016708 -153.66682552 3.38112921 -142.04244429 3.10198945 C-133.63900674 2.90020701 -125.23556464 2.69861873 -116.83210945 2.49757195 C-107.57897245 2.27616613 -98.32585437 2.05398254 -89.07275391 1.83105469 C-88.3552598 1.81378381 -87.63776569 1.79651294 -86.89852934 1.77871871 C-68.62814305 1.33876745 -50.3581068 0.89012801 -32.09060097 0.3413887 C-21.39174486 0.02631199 -10.70270443 -0.05839441 0 0 Z " fill="#E79F5F" transform="translate(818.75,12.9375)"/>
<path d="M0 0 C0 1.98 0 3.96 0 6 C-8.83275064 6.42919831 -17.66620512 6.8429358 -26.5 7.25 C-27.58453838 7.30007895 -27.58453838 7.30007895 -28.69098663 7.35116959 C-49.41227906 8.30566144 -70.13495317 9.13107721 -90.8671875 9.80859375 C-146.81718003 11.64739577 -202.718865 14.0117253 -258.625 16.875 C-259.46887315 16.9182127 -260.31274631 16.96142541 -261.18219137 17.00594759 C-319.63867687 20.00225632 -378.07346868 23.30969773 -436.4610548 27.45734978 C-438.53135123 27.60392881 -440.60177508 27.74854585 -442.67225647 27.89248657 C-445.14686445 28.06506441 -447.62121725 28.24137295 -450.09519958 28.42269897 C-458.07379064 28.97571491 -466.00350147 29.09072745 -474 29 C-474 28.67 -474 28.34 -474 28 C-471.79248152 27.66131223 -469.58394089 27.32928311 -467.375 27 C-466.14523437 26.814375 -464.91546875 26.62875 -463.6484375 26.4375 C-460.3833973 26.04597484 -457.28287549 25.91919076 -454 26 C-453.67 25.01 -453.34 24.02 -453 23 C-452.34 23.33 -451.68 23.66 -451 24 C-449.14913563 24.09678916 -447.29479851 24.13075855 -445.44140625 24.1328125 C-443.77948242 24.13474609 -443.77948242 24.13474609 -442.08398438 24.13671875 C-440.92189453 24.13285156 -439.75980469 24.12898438 -438.5625 24.125 C-436.82516602 24.13080078 -436.82516602 24.13080078 -435.05273438 24.13671875 C-433.94349609 24.13542969 -432.83425781 24.13414063 -431.69140625 24.1328125 C-430.16302124 24.13112061 -430.16302124 24.13112061 -428.60375977 24.12939453 C-425.88580194 24.11124012 -425.88580194 24.11124012 -423 23 C-421.02998932 22.86136499 -419.05611483 22.77492615 -417.08203125 22.71875 C-415.32342773 22.66267578 -415.32342773 22.66267578 -413.52929688 22.60546875 C-412.30275391 22.57066406 -411.07621094 22.53585938 -409.8125 22.5 C-407.4022425 22.43051046 -404.99207878 22.35767578 -402.58203125 22.28125 C-401.51186768 22.25095703 -400.4417041 22.22066406 -399.33911133 22.18945312 C-396.23272719 22.01320438 -393.18978112 21.64833252 -390.10658264 21.24179077 C-386.41050447 20.8175598 -382.70386647 20.68698025 -378.98828125 20.53515625 C-377.25332739 20.45780704 -375.51838305 20.38024394 -373.78344727 20.30249023 C-372.88892853 20.26340546 -371.99440979 20.22432068 -371.07278442 20.18405151 C-357.48485104 19.58569511 -343.95729169 18.89027236 -330.4296875 17.44140625 C-322.97667936 16.65397538 -315.48409446 16.34724736 -308 16 C-307.67 15.34 -307.34 14.68 -307 14 C-331.41316355 14.54936888 -331.41316355 14.54936888 -355.8125 15.5 C-356.9257666 15.55305298 -356.9257666 15.55305298 -358.06152344 15.60717773 C-361.3089295 15.78111873 -364.49087715 16.06760815 -367.71362305 16.51147461 C-371.97080918 17.0525069 -376.15089577 17.12820248 -380.4375 17.09765625 C-381.20304199 17.0962413 -381.96858398 17.09482635 -382.75732422 17.09336853 C-385.17159142 17.08782853 -387.58576144 17.07528779 -390 17.0625 C-391.64973823 17.05747723 -393.29947794 17.05291569 -394.94921875 17.04882812 C-398.96618255 17.03787886 -402.98307487 17.02065666 -407 17 C-407 16.67 -407 16.34 -407 16 C-324.66422111 11.75556154 -242.30670805 7.99748485 -98.94157773 2.37535644 C-94.51955288 2.21026543 -90.09758898 2.04365558 -85.6756745 1.87563491 C-24.63878666 -0.44343235 -24.63878666 -0.44343235 0 0 Z " fill="#E79D5B" transform="translate(836,44)"/>
<path d="M0 0 C-0.66 0.33 -1.32 0.66 -2 1 C-2.33 1.99 -2.66 2.98 -3 4 C-4.05574219 4.04898438 -5.11148438 4.09796875 -6.19921875 4.1484375 C-13.38495861 4.50388957 -20.54295641 4.91801578 -27.69775391 5.68432617 C-41.35946246 7.14697244 -55.0621296 7.70295595 -68.78344727 8.30249023 C-70.09632721 8.36132889 -70.09632721 8.36132889 -71.43572998 8.4213562 C-73.08334645 8.49481166 -74.73108932 8.56550842 -76.37896729 8.63284302 C-79.99649036 8.79415388 -83.56084658 9.03797443 -87.15185547 9.51147461 C-90.65421561 9.95610236 -94.0556385 10.1814289 -97.58203125 10.28125 C-99.35030273 10.33732422 -99.35030273 10.33732422 -101.15429688 10.39453125 C-103.61261405 10.46540638 -106.07094777 10.53571003 -108.52929688 10.60546875 C-109.70169922 10.64285156 -110.87410156 10.68023437 -112.08203125 10.71875 C-113.67881714 10.76418945 -113.67881714 10.76418945 -115.30786133 10.81054688 C-118.09902884 10.89475911 -118.09902884 10.89475911 -121 12 C-122.89531298 12.09418808 -124.79375552 12.13071184 -126.69140625 12.1328125 C-128.35526367 12.13474609 -128.35526367 12.13474609 -130.05273438 12.13671875 C-131.21095703 12.13285156 -132.36917969 12.12898438 -133.5625 12.125 C-134.72458984 12.12886719 -135.88667969 12.13273437 -137.08398438 12.13671875 C-138.19193359 12.13542969 -139.29988281 12.13414063 -140.44140625 12.1328125 C-141.45920166 12.13168457 -142.47699707 12.13055664 -143.52563477 12.12939453 C-146 12 -146 12 -148 11 C-148.33 11.66 -148.66 12.32 -149 13 C-151.82325007 13.64621359 -154.55725011 14.1419009 -157.41796875 14.5546875 C-158.30292526 14.68430878 -159.18788177 14.81393005 -160.09965515 14.94747925 C-171.78495669 16.53045616 -183.53900591 16.78163109 -195.3125 17.125 C-198.74404094 17.23369243 -202.17543047 17.3457311 -205.60673523 17.4616394 C-207.71905827 17.53212902 -209.83153889 17.59809771 -211.94416809 17.65872192 C-217.04471675 17.82029442 -221.94750161 18.24167453 -227 19 C-229.55949827 19.1408084 -232.12123751 19.24437214 -234.68359375 19.31640625 C-235.38396255 19.33718735 -236.08433136 19.35796844 -236.80592346 19.37937927 C-239.01636106 19.44412465 -241.22690485 19.50340608 -243.4375 19.5625 C-244.94727607 19.60575681 -246.45704188 19.64937323 -247.96679688 19.69335938 C-251.64442196 19.79972748 -255.32216291 19.90120002 -259 20 C-255.2632157 17.50881047 -253.25548181 17.7934774 -248.8125 17.875 C-247.54019531 17.89304687 -246.26789063 17.91109375 -244.95703125 17.9296875 C-243.98121094 17.95289062 -243.00539063 17.97609375 -242 18 C-242 17.01 -242 16.02 -242 15 C-243.65 14.67 -245.3 14.34 -247 14 C-247 13.67 -247 13.34 -247 13 C-245.93023926 12.97812622 -245.93023926 12.97812622 -244.83886719 12.95581055 C-241.4754778 12.87941896 -238.11288693 12.78342735 -234.75 12.6875 C-233.62980469 12.66494141 -232.50960938 12.64238281 -231.35546875 12.61914062 C-224.56195975 12.41040152 -218.10268038 11.74677602 -211.4140625 10.62109375 C-196.14935803 8.13195338 -180.64653282 7.48138707 -165.22587967 6.53529358 C-162.60507609 6.37377208 -159.98451639 6.20869233 -157.36398315 6.04284668 C-132.53981365 4.47911665 -107.77163312 3.39799644 -82.89501953 3.18896484 C-81.86188126 3.18003204 -80.82874298 3.17109924 -79.76429749 3.16189575 C-77.88366369 3.14832588 -76.00298115 3.13987866 -74.12229919 3.13815308 C-69.70385193 3.11672451 -65.46400952 2.86385371 -61.07783508 2.25119019 C-56.94052538 1.75102942 -52.77475913 1.6386043 -48.61328125 1.46484375 C-47.63441452 1.42186661 -46.65554779 1.37888947 -45.64701843 1.33460999 C-43.58383912 1.24484406 -41.52058903 1.15669172 -39.45727539 1.07006836 C-36.33914047 0.93862303 -33.22133794 0.8007504 -30.10351562 0.66210938 C-20.063647 0.22575047 -10.05133758 -0.16366308 0 0 Z " fill="#EB8935" transform="translate(531,57)"/>
<path d="M0 0 C1.71484234 0.00505998 3.42968624 0.00961441 5.14453125 0.01367188 C9.17972949 0.02424317 13.21484467 0.04121754 17.25 0.0625 C17.25 1.7125 17.25 3.3625 17.25 5.0625 C7.67678053 5.7657344 -1.85875734 6.24787515 -11.45776367 6.43554688 C-12.7383667 6.46334732 -14.01896973 6.49114777 -15.33837891 6.51979065 C-18.0946959 6.5795898 -20.85104534 6.63728916 -23.60744286 6.69325256 C-28.00825216 6.78260976 -32.40895017 6.8768266 -36.80964661 6.97155762 C-43.81044225 7.1216932 -50.81130142 7.26859482 -57.81219417 7.41412497 C-70.97642721 7.68787191 -84.14053358 7.96763825 -97.30462265 8.24821281 C-100.29256481 8.31187762 -103.28051312 8.37524152 -106.26846695 8.4383564 C-123.55215843 8.80373267 -140.83382303 9.20367335 -158.11387444 9.71580315 C-168.41282915 10.019746 -178.69694337 10.1954946 -189 10.125 C-190.37760237 10.11992807 -191.75520674 10.1153761 -193.1328125 10.11132812 C-196.3386014 10.10004014 -199.54426662 10.08399945 -202.75 10.0625 C-202.75 9.7325 -202.75 9.4025 -202.75 9.0625 C-190.54 8.4025 -178.33 7.7425 -165.75 7.0625 C-178.82123982 6.98279732 -191.85189716 7.06032538 -204.91551971 7.49118233 C-224.91725005 8.1367988 -244.90597327 8.18427761 -264.91619873 8.13116455 C-269.32303351 8.12065052 -273.72987486 8.11630901 -278.13671875 8.11132812 C-286.674496 8.10082851 -295.21224319 8.08392943 -303.75 8.0625 C-303.75 7.7325 -303.75 7.4025 -303.75 7.0625 C-301.8980496 7.0174991 -301.8980496 7.0174991 -300.00868607 6.97158909 C-270.52961161 6.25524332 -241.05055309 5.53824529 -211.57151337 4.82047171 C-207.92267569 4.73162814 -204.27383789 4.64278995 -200.625 4.55395508 C-199.89875194 4.5362737 -199.17250388 4.51859232 -198.42424831 4.50037514 C-186.75063065 4.21617968 -175.07700252 3.93241646 -163.40337029 3.64882035 C-151.37533319 3.35660452 -139.34730787 3.06390711 -127.31929278 2.77078623 C-120.58436267 2.60667021 -113.84942738 2.44277334 -107.11447906 2.27940559 C-99.54928497 2.09586679 -91.98410753 1.91165466 -84.41894531 1.72680664 C-83.23502606 1.69790407 -82.05110682 1.6690015 -80.83131123 1.6392231 C-64.7820804 1.24651434 -48.73364546 0.83244503 -32.6866951 0.35478306 C-21.78870464 0.03747774 -10.90180296 -0.0594807 0 0 Z " fill="#E9A569" transform="translate(818.75,12.9375)"/>
<path d="M0 0 C1.41223343 -0.00537781 1.41223343 -0.00537781 2.85299683 -0.01086426 C5.50380048 -0.01635506 8.15394714 -0.00594207 10.8046875 0.01171875 C11.98435341 0.01056313 11.98435341 0.01056313 13.18785095 0.00938416 C16.97179705 0.0582798 19.91600153 0.18499013 23.125 2.3125 C21.805 2.3125 20.485 2.3125 19.125 2.3125 C19.125 2.9725 19.125 3.6325 19.125 4.3125 C18.13318726 4.35008423 18.13318726 4.35008423 17.12133789 4.38842773 C14.14317695 4.50403102 11.1653608 4.62691754 8.1875 4.75 C6.62612305 4.80897461 6.62612305 4.80897461 5.03320312 4.86914062 C3.54916992 4.93198242 3.54916992 4.93198242 2.03515625 4.99609375 C1.11871338 5.03275146 0.20227051 5.06940918 -0.74194336 5.10717773 C-2.8570728 5.08253864 -2.8570728 5.08253864 -3.875 6.3125 C-6.33346425 6.51927427 -8.77106873 6.66723316 -11.234375 6.77734375 C-12.75782342 6.85590839 -14.28126058 6.93469145 -15.8046875 7.01367188 C-18.21177686 7.13304586 -20.61893914 7.24971717 -23.02636719 7.36206055 C-25.34614906 7.47212842 -27.66519239 7.59287965 -29.984375 7.71484375 C-31.05652252 7.76027565 -31.05652252 7.76027565 -32.15032959 7.80662537 C-35.00633521 7.96126868 -37.46491117 8.13660689 -40.11051941 9.27134705 C-43.61650838 10.59176535 -47.0814307 10.97578325 -50.77954102 11.36572266 C-51.56078842 11.45379684 -52.34203583 11.54187103 -53.1469574 11.63261414 C-55.72353536 11.92109976 -58.30111567 12.19913755 -60.87890625 12.4765625 C-62.68152109 12.67504799 -64.48408695 12.87397875 -66.28660583 13.07333374 C-70.06631398 13.48971329 -73.84653452 13.90097547 -77.62719727 14.30859375 C-82.44388355 14.82827952 -87.25913599 15.36008628 -92.07406712 15.89576149 C-95.79960188 16.30892843 -99.52580832 16.71575913 -103.25224113 17.12073898 C-105.02603542 17.31421746 -106.79962829 17.50955272 -108.57299995 17.70686722 C-130.28563738 20.11390581 -130.28563738 20.11390581 -136.875 19.3125 C-138.875 17.3125 -138.875 17.3125 -139.125 14.8125 C-138.875 12.3125 -138.875 12.3125 -136.875 10.3125 C-135.09611511 9.84179688 -135.09611511 9.84179688 -132.91870117 9.53125 C-132.10025223 9.41257568 -131.28180328 9.29390137 -130.43855286 9.17163086 C-129.5448851 9.05311768 -128.65121735 8.93460449 -127.73046875 8.8125 C-126.32742744 8.62022827 -126.32742744 8.62022827 -124.89604187 8.42407227 C-114.02666617 6.98883964 -103.11747912 6.13085882 -92.1875 5.3125 C-89.98883 5.14447914 -87.79018127 4.97617972 -85.59155273 4.80761719 C-82.24340226 4.55175426 -78.89517312 4.29721577 -75.54664612 4.04632568 C-69.51351065 3.59418827 -63.48305008 3.12034664 -57.45426941 2.61347961 C-38.29058907 1.00637358 -19.2362353 0.02995825 0 0 Z " fill="#EA7D20" transform="translate(156.875,30.6875)"/>
<path d="M0 0 C0 1.98 0 3.96 0 6 C-1.66414444 6.03092239 -1.66414444 6.03092239 -3.36190796 6.06246948 C-14.03287397 6.26155843 -24.70369754 6.4672262 -35.37442589 6.67867851 C-40.85486991 6.78708578 -46.3353345 6.89349648 -51.81591797 6.99462891 C-75.91344485 7.44076703 -99.98100323 8.01921244 -124.04891968 9.33493042 C-139.03797044 10.14290119 -153.99283057 10.21856733 -169 10 C-169 9.01 -169 8.02 -169 7 C-167.92576782 6.97812622 -167.92576782 6.97812622 -166.82983398 6.95581055 C-163.36535327 6.87818819 -159.90154152 6.78267584 -156.4375 6.6875 C-155.31408203 6.66494141 -154.19066406 6.64238281 -153.03320312 6.61914062 C-145.2318965 6.3903023 -137.52982163 5.77558803 -129.76661682 4.96463013 C-110.70388703 2.97687534 -91.67030961 2.07716464 -72.52050781 1.40332031 C-69.16221183 1.28231236 -65.80439359 1.150121 -62.44651794 1.0180378 C-41.62185737 0.20368302 -20.84055348 -0.19493035 0 0 Z " fill="#E37F2A" transform="translate(836,44)"/>
<path d="M0 0 C-1.30834961 1.97338867 -1.30834961 1.97338867 -3 4 C-6.06640625 4.42578125 -6.06640625 4.42578125 -9.5625 4.3125 C-11.29693359 4.27576172 -11.29693359 4.27576172 -13.06640625 4.23828125 C-16 4 -16 4 -18 3 C-18.33 3.66 -18.66 4.32 -19 5 C-21.82325007 5.64621359 -24.55725011 6.1419009 -27.41796875 6.5546875 C-28.30292526 6.68430878 -29.18788177 6.81393005 -30.09965515 6.94747925 C-41.78495669 8.53045616 -53.53900591 8.78163109 -65.3125 9.125 C-68.74404094 9.23369243 -72.17543047 9.3457311 -75.60673523 9.4616394 C-77.71905827 9.53212902 -79.83153889 9.59809771 -81.94416809 9.65872192 C-87.04471675 9.82029442 -91.94750161 10.24167453 -97 11 C-99.55949827 11.1408084 -102.12123751 11.24437214 -104.68359375 11.31640625 C-105.73414696 11.3475779 -105.73414696 11.3475779 -106.80592346 11.37937927 C-109.01636106 11.44412465 -111.22690485 11.50340608 -113.4375 11.5625 C-114.94727607 11.60575681 -116.45704188 11.64937323 -117.96679688 11.69335938 C-121.64442196 11.79972748 -125.32216291 11.90120002 -129 12 C-125.2632157 9.50881047 -123.25548181 9.7934774 -118.8125 9.875 C-117.54019531 9.89304687 -116.26789063 9.91109375 -114.95703125 9.9296875 C-113.49330078 9.96449219 -113.49330078 9.96449219 -112 10 C-112 9.01 -112 8.02 -112 7 C-113.65 6.67 -115.3 6.34 -117 6 C-117 5.67 -117 5.34 -117 5 C-116.25540527 4.98018066 -115.51081055 4.96036133 -114.74365234 4.93994141 C-111.28714948 4.84319995 -107.83113273 4.73414103 -104.375 4.625 C-103.20453125 4.5940625 -102.0340625 4.563125 -100.828125 4.53125 C-94.82826976 4.33345257 -88.99668667 3.92055903 -83.0625 2.99609375 C-75.58205531 1.84509513 -68.18325504 1.59451448 -60.625 1.4375 C-57.86967953 1.36862308 -55.11452683 1.29404056 -52.359375 1.21875 C-51.06837891 1.18394531 -49.77738281 1.14914063 -48.44726562 1.11328125 C-44.57538775 0.98604674 -40.73660455 0.74103224 -36.875 0.4375 C-24.62683411 -0.44326699 -12.27331409 -0.08087646 0 0 Z " fill="#EA7D1F" transform="translate(401,65)"/>
<path d="M0 0 C0 1.65 0 3.3 0 5 C-12.72907484 5.17392369 -25.4582407 5.3401514 -38.1875 5.5 C-39.60570793 5.51781588 -39.60570793 5.51781588 -41.05256653 5.53599167 C-75.70391694 5.9686189 -110.34606876 6.13321 -145 6 C-145 5.67 -145 5.34 -145 5 C-144.13721436 4.94465088 -143.27442871 4.88930176 -142.38549805 4.83227539 C-139.18166688 4.62484551 -135.97809609 4.41385035 -132.7746582 4.20043945 C-131.38868421 4.10884098 -130.00261575 4.0186603 -128.61645508 3.92993164 C-126.62296625 3.8020798 -124.62983503 3.6686901 -122.63671875 3.53515625 C-121.43748779 3.456604 -120.23825684 3.37805176 -119.00268555 3.29711914 C-115.95260008 3.10712993 -115.95260008 3.10712993 -113 2 C-110.83112432 1.85366383 -108.65830772 1.76368811 -106.48535156 1.70288086 C-105.82512056 1.68323336 -105.16488956 1.66358585 -104.48465157 1.64334297 C-102.28674662 1.5792474 -100.08872317 1.52189952 -97.890625 1.46484375 C-96.34013105 1.42161646 -94.7896449 1.37810835 -93.23916626 1.33433533 C-89.096835 1.21901725 -84.95435408 1.11041702 -80.81179047 1.00380707 C-78.25911289 0.93773587 -75.70648804 0.86989058 -73.15386963 0.80157471 C-48.76753505 0.15188505 -24.39607707 -0.32184798 0 0 Z " fill="#EC9D58" transform="translate(836,13)"/>
<path d="M0 0 C0 0.33 0 0.66 0 1 C-17.66104143 2.69955673 -35.26883394 3.53319062 -53 4 C-53 4.33 -53 4.66 -53 5 C-35.81233223 5.25032454 -18.72752971 4.95484797 -1.5625 4.0625 C31.95947756 2.33514165 65.43652192 1.81916229 99 2 C99 2.33 99 2.66 99 3 C82.30749145 3.63550699 65.61495177 4.27018954 48.92237663 4.90394497 C41.16812605 5.19836356 33.41388509 5.49303135 25.65966797 5.78833008 C18.88480036 6.04633221 12.10991347 6.30382172 5.33500493 6.56074673 C1.76257753 6.69624055 -1.80984105 6.83195615 -5.38223648 6.96829033 C-14.58789228 7.31947152 -23.79376522 7.6642927 -33 8 C-33.66702281 8.02439353 -34.33404562 8.04878705 -35.02128124 8.07391977 C-39.71830012 8.24530073 -44.41549152 8.41100662 -49.11279297 8.57446289 C-50.30384203 8.61758071 -51.49489109 8.66069853 -52.72203255 8.70512295 C-60.81745409 8.98072779 -68.90018092 9.0470717 -77 9 C-74 7 -74 7 -64 6 C-82.81 5.67 -101.62 5.34 -121 5 C-121 4.67 -121 4.34 -121 4 C-108.61985001 3.47275451 -96.23948704 2.95084345 -83.85883999 2.43539429 C-78.10752457 2.19578668 -72.35629237 1.95446999 -66.60522461 1.70898438 C-61.03565973 1.47131364 -55.46591039 1.23847554 -49.89601326 1.00872803 C-47.79093533 0.92109691 -45.68592424 0.83184154 -43.58099174 0.74078369 C-29.04575211 0.11347334 -14.54863651 -0.11640233 0 0 Z " fill="#E9A96F" transform="translate(720,48)"/>
<path d="M0 0 C-2.92087278 1.46043639 -5.53555269 1.1656529 -8.796875 1.2109375 C-10.23202702 1.23705807 -11.66716671 1.26386238 -13.10229492 1.29125977 C-13.86061615 1.30456329 -14.61893738 1.31786682 -15.40023804 1.33157349 C-32.73154474 1.65187752 -49.78635425 2.96800606 -67 5 C-62.97918212 5.02921779 -58.95839186 5.04687188 -54.9375 5.0625 C-53.80376953 5.07087891 -52.67003906 5.07925781 -51.50195312 5.08789062 C-50.39658203 5.09111328 -49.29121094 5.09433594 -48.15234375 5.09765625 C-47.14163818 5.10289307 -46.13093262 5.10812988 -45.08959961 5.11352539 C-41.97124075 5.06002425 -41.97124075 5.06002425 -38.80981445 4.5 C-34.83300677 3.97808381 -30.95410578 3.86631635 -26.95336914 3.88647461 C-25.79603775 3.88625557 -25.79603775 3.88625557 -24.61532593 3.8860321 C-22.08857317 3.88672362 -19.56189598 3.89448006 -17.03515625 3.90234375 C-15.27396179 3.90421064 -13.51276682 3.90563326 -11.75157166 3.90663147 C-7.13368273 3.91043533 -2.51582564 3.92024727 2.10205078 3.93133545 C6.82128468 3.94159554 11.54052377 3.94613892 16.25976562 3.95117188 C25.50652435 3.96187158 34.75325952 3.97892222 44 4 C44 4.33 44 4.66 44 5 C42.93198402 5.02759148 42.93198402 5.02759148 41.84239197 5.05574036 C-11.623994 6.44656934 -65.06180863 8.23085562 -118.41772461 12.08569336 C-119.71040001 12.17799225 -119.71040001 12.17799225 -121.02919006 12.27215576 C-122.59544477 12.38475261 -124.16150452 12.50012155 -125.72727966 12.61920166 C-130.82938631 12.98747557 -135.88438249 13.0443769 -141 13 C-138.1522797 10.1522797 -135.23003934 10.56110194 -131.40234375 10.40234375 C-130.65287979 10.36315323 -129.90341583 10.32396271 -129.13124084 10.28358459 C-126.73367704 10.15934046 -124.33575018 10.04763475 -121.9375 9.9375 C-119.53581119 9.82217482 -117.13433228 9.7041621 -114.73304749 9.58070374 C-113.23756304 9.5043143 -111.74181282 9.4329394 -110.24583435 9.3669281 C-106.83109869 9.48457165 -106.83109869 9.48457165 -104 8 C-102.36527118 7.91299658 -100.72685945 7.89298937 -99.08984375 7.90234375 C-97.60581055 7.90717773 -97.60581055 7.90717773 -96.09179688 7.91210938 C-95.05087891 7.92048828 -94.00996094 7.92886719 -92.9375 7.9375 C-91.37032227 7.94426758 -91.37032227 7.94426758 -89.77148438 7.95117188 C-87.1809334 7.96300087 -84.59049441 7.97948311 -82 8 C-82 7.01 -82 6.02 -82 5 C-94.87 4.505 -94.87 4.505 -108 4 C-108 3.67 -108 3.34 -108 3 C-40.4737467 -0.10228419 -40.4737467 -0.10228419 -17.4375 -0.75 C-16.31004868 -0.78430618 -16.31004868 -0.78430618 -15.15982056 -0.81930542 C-13.10542076 -0.88054225 -11.05075809 -0.93277182 -8.99609375 -0.984375 C-7.89450928 -1.01241211 -6.7929248 -1.04044922 -5.65795898 -1.06933594 C-3 -1 -3 -1 0 0 Z " fill="#E8A263" transform="translate(258,27)"/>
<path d="M0 0 C0 0.66 0 1.32 0 2 C-6.90666655 3.56835753 -14.01940677 3.64680578 -21.0703125 4.02734375 C-22.2795809 4.09348531 -22.2795809 4.09348531 -23.51327896 4.16096306 C-43.35761522 5.22399141 -63.20334088 5.40370519 -83.07177734 5.54260254 C-90.57903588 5.59588956 -98.0861839 5.66002055 -105.59329605 5.73081779 C-108.17846804 5.75335085 -110.76362557 5.76977329 -113.34884644 5.78553772 C-114.92641388 5.79893753 -116.50397953 5.81255173 -118.08154297 5.82641602 C-118.78370941 5.82902939 -119.48587585 5.83164276 -120.20932007 5.83433533 C-124.55331761 5.87953856 -128.7108518 6.33447674 -133 7 C-135.04965638 7.07531333 -137.1013317 7.10828326 -139.15234375 7.09765625 C-140.25771484 7.09443359 -141.36308594 7.09121094 -142.50195312 7.08789062 C-143.63568359 7.07951172 -144.76941406 7.07113281 -145.9375 7.0625 C-147.67870117 7.05573242 -147.67870117 7.05573242 -149.45507812 7.04882812 C-152.30343934 7.03710647 -155.15169222 7.0206976 -158 7 C-158.33 6.34 -158.66 5.68 -159 5 C-138.07597321 2.62901178 -117.28147654 1.38647898 -96.22491455 1.05145264 C-93.21289742 1.00339672 -90.20091787 0.95335518 -87.18894196 0.90279007 C-77.39693096 0.73871948 -67.60477328 0.58504535 -57.8125 0.4375 C-56.68993931 0.42054707 -56.68993931 0.42054707 -55.54470062 0.40325165 C-37.0293578 0.12523215 -18.51797992 -0.07714483 0 0 Z " fill="#E17F2A" transform="translate(349,26)"/>
<path d="M0 0 C-3.50934731 2.33956487 -5.24532846 2.36049983 -9.41796875 2.59765625 C-10.41482697 2.65596619 -10.41482697 2.65596619 -11.43182373 2.7154541 C-13.68326525 2.84222547 -15.93514781 2.9531682 -18.1875 3.0625 C-18.9731131 3.1035788 -19.7587262 3.14465759 -20.56814575 3.1869812 C-39.04079893 4.14409803 -57.53259344 4.41308378 -76.02612305 4.65844727 C-78.3182027 4.68982552 -80.61027642 4.72164018 -82.90234375 4.75390625 C-84.03225235 4.7697879 -85.16216095 4.78566956 -86.3263092 4.80203247 C-92.99347636 4.90969901 -99.63559518 5.15828352 -106.29296875 5.5234375 C-122.11538667 6.35576043 -137.97544033 6.11093884 -153.81420898 6.06866455 C-158.13264466 6.05826885 -162.45108655 6.05383282 -166.76953125 6.04882812 C-175.17970408 6.03823687 -183.5898474 6.02126528 -192 6 C-191.67 5.34 -191.34 4.68 -191 4 C-189.28115601 3.96241577 -189.28115601 3.96241577 -187.52758789 3.92407227 C-183.29146402 3.83016894 -179.05551072 3.72990725 -174.81958008 3.62768555 C-172.98335753 3.5842718 -171.14709292 3.54260161 -169.31079102 3.50268555 C-166.67711689 3.44513831 -164.04365579 3.38140002 -161.41015625 3.31640625 C-160.58411392 3.29969376 -159.75807159 3.28298126 -158.90699768 3.26576233 C-155.14523247 3.52192567 -155.14523247 3.52192567 -152 2 C-149.45170219 1.88006817 -146.92931234 1.82453498 -144.37963867 1.81054688 C-143.57900497 1.80225357 -142.77837128 1.79396027 -141.95347595 1.78541565 C-140.20146399 1.76794732 -138.44942778 1.75279942 -136.69737816 1.73963928 C-133.88553994 1.71850627 -131.07381178 1.69146289 -128.26203918 1.66296387 C-123.25348039 1.61320767 -118.24489015 1.56880603 -113.23626709 1.52606201 C-104.40094148 1.45053431 -95.56567969 1.36916822 -86.73046875 1.28125 C-85.28635557 1.26713986 -85.28635557 1.26713986 -83.81306839 1.25274467 C-69.16257168 1.10549284 -54.52177826 0.81140602 -39.8782196 0.33569336 C-26.58360177 -0.09066693 -13.30059847 -0.10558609 0 0 Z " fill="#E67E25" transform="translate(656,19)"/>
<path d="M0 0 C-0.33 1.32 -0.66 2.64 -1 4 C-1.91523437 4.06058594 -2.83046875 4.12117188 -3.7734375 4.18359375 C-4.96195312 4.26738281 -6.15046875 4.35117187 -7.375 4.4375 C-9.15003906 4.55931641 -9.15003906 4.55931641 -10.9609375 4.68359375 C-13.91518901 4.81084936 -13.91518901 4.81084936 -16 6 C-19.62650802 6.26535425 -23.24683946 6.44444116 -26.87890625 6.60546875 C-31.07362988 6.7104186 -31.07362988 6.7104186 -35 8 C-37.2072923 8.07092842 -39.41667452 8.08415025 -41.625 8.0625 C-42.81351563 8.05347656 -44.00203125 8.04445313 -45.2265625 8.03515625 C-46.14179687 8.02355469 -47.05703125 8.01195312 -48 8 C-48 8.66 -48 9.32 -48 10 C-53.94 10 -59.88 10 -66 10 C-66 10.66 -66 11.32 -66 12 C-67.47906892 12.02689216 -68.95827483 12.04634621 -70.4375 12.0625 C-71.67306641 12.07990234 -71.67306641 12.07990234 -72.93359375 12.09765625 C-75 12 -75 12 -76 11 C-76.04063832 9.33382885 -76.042721 7.66611905 -76 6 C-67.53817213 3.30760022 -59.9489453 2.74299871 -51.17578125 2.9921875 C-50.12777344 2.99476562 -49.07976563 2.99734375 -48 3 C-47.67 2.67 -47.34 2.34 -47 2 C-44.0169976 1.57738229 -41.05937374 1.22962676 -38.0625 0.9375 C-37.14766846 0.84807129 -36.23283691 0.75864258 -35.2902832 0.66650391 C-23.54492051 -0.36353291 -11.77851789 -0.18204819 0 0 Z " fill="#EC7C1C" transform="translate(96,37)"/>
<path d="M0 0 C0 0.33 0 0.66 0 1 C-12.08207986 1.93397657 -24.17641001 2.29162084 -36.28710938 2.60717773 C-36.95946121 2.62590439 -37.63181305 2.64463104 -38.32453918 2.66392517 C-40.16315462 2.71513441 -42.00186319 2.76296886 -43.84057617 2.81054688 C-49.56817116 3.07142694 -55.28335502 3.56025808 -61 4 C-40.21 4.33 -19.42 4.66 2 5 C2 5.33 2 5.66 2 6 C-7.59986338 6.26610581 -17.19984987 6.52711621 -26.80000973 6.78230286 C-31.26184121 6.90105072 -35.72361957 7.02130254 -40.18530273 7.14550781 C-63.12998698 7.78293736 -86.04598876 8.15320057 -109 8 C-109 7.67 -109 7.34 -109 7 C-103.8222786 6.71342853 -98.64446289 6.42864844 -93.46655273 6.14550781 C-91.70610917 6.04899191 -89.94569209 5.95199168 -88.18530273 5.85449219 C-85.65094751 5.71421158 -83.11650129 5.57568882 -80.58203125 5.4375 C-79.40674614 5.37187866 -79.40674614 5.37187866 -78.2077179 5.30493164 C-74.46746122 5.10265248 -70.74600964 4.94783625 -67 5 C-67 4.34 -67 3.68 -67 3 C-67.54636108 3.02996567 -68.09272217 3.05993134 -68.65563965 3.09080505 C-86.85868498 4.05197231 -105.02204077 4.12391591 -123.24304199 4.06866455 C-127.06566798 4.05822361 -130.8883012 4.05382363 -134.7109375 4.04882812 C-142.14064388 4.03827222 -149.57031587 4.02132799 -157 4 C-157 3.67 -157 3.34 -157 3 C-141.40246596 2.60378039 -125.80481688 2.21244787 -110.20702457 1.82654572 C-102.96063141 1.6471565 -95.71428115 1.46629369 -88.46801758 1.28173828 C-26.00670248 -0.30757796 -26.00670248 -0.30757796 0 0 Z " fill="#EAAD75" transform="translate(416,23)"/>
<path d="M0 0 C1.20094299 0.00007553 2.40188599 0.00015106 3.63922119 0.00022888 C5.57689362 0.00797081 5.57689362 0.00797081 7.55371094 0.01586914 C8.89320828 0.01773522 10.23270632 0.01915823 11.57220459 0.02015686 C15.09031065 0.02396704 18.60837515 0.03378449 22.12646484 0.04486084 C25.71939532 0.05510723 29.31233255 0.05966139 32.90527344 0.06469727 C39.94956123 0.07540814 46.99382086 0.09246652 54.03808594 0.11352539 C54.53308594 1.10352539 54.53308594 1.10352539 55.03808594 2.11352539 C54.27882813 2.17411133 53.51957031 2.23469727 52.73730469 2.29711914 C51.7434375 2.3809082 50.74957031 2.46469727 49.72558594 2.55102539 C48.73945312 2.63223633 47.75332031 2.71344727 46.73730469 2.79711914 C43.94432994 3.03165098 43.94432994 3.03165098 41.03808594 4.11352539 C39.41941316 4.22350399 37.7967967 4.27959629 36.17456055 4.30297852 C35.18600571 4.31969604 34.19745087 4.33641357 33.17893982 4.3536377 C31.5758773 4.37400085 31.5758773 4.37400085 29.94042969 4.39477539 C28.83639297 4.41318481 27.73235626 4.43159424 26.59486389 4.45056152 C23.0551593 4.50936283 19.51540481 4.5620948 15.97558594 4.61352539 C12.46076598 4.66513235 8.94600588 4.71822173 5.43128967 4.77648926 C3.24420748 4.8127382 1.05705913 4.84525649 -1.13014221 4.87341309 C-6.66038793 4.96489361 -12.08477985 5.27598444 -17.58171082 5.88070679 C-21.46644033 6.26069001 -25.35037293 6.34631237 -29.25097656 6.42993164 C-30.08027679 6.45071274 -30.90957703 6.47149384 -31.76400757 6.49290466 C-34.37157204 6.55745261 -36.97922303 6.61683655 -39.58691406 6.67602539 C-41.37207869 6.71930113 -43.15723507 6.76291802 -44.94238281 6.80688477 C-49.28214155 6.91303429 -53.62198585 7.01455797 -57.96191406 7.11352539 C-58.29191406 6.12352539 -58.62191406 5.13352539 -58.96191406 4.11352539 C-45.4447702 2.77890656 -31.97382768 1.8390487 -18.39404297 1.45556641 C-17.35038574 1.42390381 -16.30672852 1.39224121 -15.23144531 1.35961914 C-13.84856323 1.32372681 -13.84856323 1.32372681 -12.43774414 1.28710938 C-10.0520656 1.20445626 -10.0520656 1.20445626 -8.17979431 0.60977173 C-5.40568362 -0.01093008 -2.84355299 -0.00597385 0 0 Z " fill="#E97D21" transform="translate(601.9619140625,52.886474609375)"/>
<path d="M0 0 C21.78 0 43.56 0 66 0 C66 1.33333333 66 2.66666667 66 4 C64.02 4 62.04 4 60 4 C60 4.66 60 5.32 60 6 C52.32463373 6.02312821 44.64927104 6.04091753 36.97387791 6.05181217 C33.41022578 6.05703995 29.84659743 6.06413569 26.28295898 6.07543945 C22.18993903 6.08834176 18.0969442 6.09322906 14.00390625 6.09765625 C12.07581871 6.10539818 12.07581871 6.10539818 10.10877991 6.11329651 C8.33705666 6.11340981 8.33705666 6.11340981 6.52954102 6.11352539 C4.96067894 6.11685631 4.96067894 6.11685631 3.36012268 6.12025452 C1 6 1 6 0 5 C0 3.35 0 1.7 0 0 Z " fill="#EE7B1B" transform="translate(126,75)"/>
<path d="M0 0 C1.42346141 0.00186822 2.84692346 0.00329022 4.27038574 0.00428772 C7.99228737 0.00808107 11.71414913 0.01788368 15.43603516 0.0289917 C19.24380962 0.03927473 23.05159061 0.04380002 26.859375 0.04882812 C34.31251805 0.05950923 41.76562841 0.07654679 49.21875 0.09765625 C49.21875 0.75765625 49.21875 1.41765625 49.21875 2.09765625 C40.62764199 2.4972103 32.03621493 2.88872516 23.44432735 3.27111053 C19.45090745 3.44906821 15.4576285 3.62937667 11.46459961 3.81591797 C-9.63398906 4.79945195 -30.65874715 5.32017706 -51.78125 5.09765625 C-51.78125 4.10765625 -51.78125 3.11765625 -51.78125 2.09765625 C-50.94464844 2.0726001 -50.10804688 2.04754395 -49.24609375 2.02172852 C-46.10748274 1.92592789 -42.96900119 1.8267397 -39.83056641 1.7253418 C-37.81811399 1.66132884 -35.8055412 1.60113655 -33.79296875 1.54101562 C-31.86904297 1.47817383 -31.86904297 1.47817383 -29.90625 1.4140625 C-28.73320313 1.37740479 -27.56015625 1.34074707 -26.3515625 1.30297852 C-22.77889676 1.14963496 -22.77889676 1.14963496 -19.25976562 0.58398438 C-12.87619483 -0.25707998 -6.42579493 -0.02490823 0 0 Z " fill="#EB7C1E" transform="translate(718.78125,48.90234375)"/>
<path d="M0 0 C1.21236328 0.02707031 1.21236328 0.02707031 2.44921875 0.0546875 C3.37154297 0.08949219 3.37154297 0.08949219 4.3125 0.125 C4.6425 0.785 4.9725 1.445 5.3125 2.125 C4.6525 2.125 3.9925 2.125 3.3125 2.125 C3.6425 3.775 3.9725 5.425 4.3125 7.125 C38.3025 7.125 72.2925 7.125 107.3125 7.125 C107.3125 7.455 107.3125 7.785 107.3125 8.125 C98.41684989 8.44278438 89.52098699 8.75429905 80.625 9.0625 C79.96158474 9.08554577 79.29816948 9.10859154 78.61465073 9.13233566 C58.08807557 9.84459808 37.56316892 10.43541339 17.02661133 10.78295898 C16.15093506 10.79926361 15.27525879 10.81556824 14.37304688 10.83236694 C12.77309473 10.86203532 11.17307484 10.88836983 9.57299805 10.91030884 C5.96686103 10.97901028 2.47705515 11.20203686 -1.09692383 11.70288086 C-4.6875 12.125 -4.6875 12.125 -6.6875 11.125 C-8.23745952 8.02508095 -8.0580824 5.52200537 -7.6875 2.125 C-4.48369983 -0.01086678 -3.66810033 -0.10632175 0 0 Z " fill="#E89246" transform="translate(122.6875,72.875)"/>
<path d="M0 0 C-0.66 0.33 -1.32 0.66 -2 1 C-2.33 1.99 -2.66 2.98 -3 4 C-4.05574219 4.04898438 -5.11148438 4.09796875 -6.19921875 4.1484375 C-14.61681381 4.56478752 -22.98965028 5.14938058 -31.375 6 C-41.57066804 7.03117225 -51.76271879 7.58215179 -62 8 C-59 6 -59 6 -53 5 C-59.93 4.505 -59.93 4.505 -67 4 C-67 3.67 -67 3.34 -67 3 C-60.86802138 2.14621412 -54.79693962 1.72303949 -48.61328125 1.46484375 C-47.63441452 1.42186661 -46.65554779 1.37888947 -45.64701843 1.33460999 C-43.58383912 1.24484406 -41.52058903 1.15669172 -39.45727539 1.07006836 C-36.33914047 0.93862303 -33.22133794 0.8007504 -30.10351562 0.66210938 C-20.063647 0.22575047 -10.05133758 -0.16366308 0 0 Z " fill="#E97D20" transform="translate(531,57)"/>
<path d="M0 0 C0 1.98 0 3.96 0 6 C-3.96 6 -7.92 6 -12 6 C-8.23312136 4.11656068 -6.97041037 3.77942165 -3 4 C-3 3.34 -3 2.68 -3 2 C-3.68868164 2.06566162 -4.37736328 2.13132324 -5.08691406 2.19897461 C-18.28328547 3.30272641 -31.51587183 3.35730423 -44.75 3.5625 C-46.03348328 3.58367889 -47.31696655 3.60485779 -48.63934326 3.62667847 C-68.76082748 3.95860677 -88.8760949 4.14511358 -109 4 C-109 3.67 -109 3.34 -109 3 C-99.36574883 2.60137006 -89.73123874 2.2098577 -80.09636593 1.82654572 C-75.61870966 1.64820238 -71.14116379 1.46773427 -66.66381836 1.28173828 C-44.42918971 0.35984654 -22.25504977 -0.24122871 0 0 Z " fill="#E59E5F" transform="translate(836,44)"/>
<path d="M0 0 C-3.79163027 2.52775351 -6.80874031 2.22443035 -11.1875 2.125 C-11.93708984 2.11597656 -12.68667969 2.10695312 -13.45898438 2.09765625 C-15.30612654 2.07412578 -17.15310412 2.03825561 -19 2 C-19 2.66 -19 3.32 -19 4 C-19.9379541 4.02505615 -20.8759082 4.0501123 -21.84228516 4.07592773 C-25.34239291 4.17140884 -28.84235451 4.27062064 -32.34228516 4.37231445 C-33.85331126 4.41546354 -35.36437986 4.45715156 -36.87548828 4.49731445 C-39.05514294 4.55550563 -41.23458763 4.61905552 -43.4140625 4.68359375 C-44.7232666 4.72025146 -46.0324707 4.75690918 -47.38134766 4.79467773 C-50.67155254 4.9813639 -53.75820201 5.43764455 -57 6 C-59.25169835 6.19423111 -61.50605699 6.35907029 -63.76171875 6.5 C-65.04626953 6.5825 -66.33082031 6.665 -67.65429688 6.75 C-68.99868478 6.83354492 -70.34308593 6.91687719 -71.6875 7 C-86.54489503 7.28650364 -86.54489503 7.28650364 -101 10 C-103.232269 9.91382274 -105.46238486 9.76077759 -107.6875 9.5625 C-108.86699219 9.46066406 -110.04648438 9.35882813 -111.26171875 9.25390625 C-112.16535156 9.17011719 -113.06898437 9.08632813 -114 9 C-114 8.67 -114 8.34 -114 8 C-89.39580957 5.62805232 -64.77913628 3.53357038 -40.125 1.75 C-38.32252808 1.61712585 -38.32252808 1.61712585 -36.48364258 1.48156738 C-11.71626077 -0.33619878 -11.71626077 -0.33619878 0 0 Z " fill="#E8A971" transform="translate(147,31)"/>
<path d="M0 0 C1.4163152 0.00187112 2.83263106 0.00329173 4.24894714 0.00428772 C7.929676 0.00805832 11.61036375 0.01784015 15.29107666 0.0289917 C19.06579025 0.03932497 22.84051064 0.04381055 26.61523438 0.04882812 C33.98699766 0.05946885 41.35872739 0.07647736 48.73046875 0.09765625 C48.73046875 0.42765625 48.73046875 0.75765625 48.73046875 1.09765625 C43.04344126 2.01841308 37.42212972 2.42345751 31.66796875 2.66015625 C30.13184937 2.72384399 30.13184937 2.72384399 28.56469727 2.78881836 C9.30176833 3.46449594 -9.99815772 3.17758984 -29.26953125 3.09765625 C-28.93953125 2.43765625 -28.60953125 1.77765625 -28.26953125 1.09765625 C-19.02845796 -0.4804341 -9.34620076 -0.03694461 0 0 Z " fill="#EA7C21" transform="translate(383.26953125,24.90234375)"/>
<path d="M0 0 C0 0.66 0 1.32 0 2 C-15.46260552 3.28336587 -30.9432774 3.11867166 -46.44458008 3.06866455 C-50.0118754 3.05828136 -53.57917818 3.05383539 -57.14648438 3.04882812 C-64.09767407 3.03822702 -71.04883488 3.02124796 -78 3 C-78 2.67 -78 2.34 -78 2 C-52.02962817 -0.53008416 -26.06436754 -0.21066844 0 0 Z " fill="#E57E25" transform="translate(769,16)"/>
<path d="M0 0 C0 0.33 0 0.66 0 1 C-4.1196377 2.29243536 -7.66831683 3.26252625 -12 3 C-11.67 4.65 -11.34 6.3 -11 8 C-8.03 8.33 -5.06 8.66 -2 9 C-2 8.34 -2 7.68 -2 7 C3.94 7 9.88 7 16 7 C16 6.34 16 5.68 16 5 C16.91523437 4.93941406 17.83046875 4.87882812 18.7734375 4.81640625 C20.55621094 4.69072266 20.55621094 4.69072266 22.375 4.5625 C24.15003906 4.44068359 24.15003906 4.44068359 25.9609375 4.31640625 C28.91518901 4.18915064 28.91518901 4.18915064 31 3 C33.58888781 2.76061654 36.15539538 2.57533926 38.75 2.4375 C39.50337646 2.3950415 40.25675293 2.35258301 41.03295898 2.30883789 C48.02605275 1.94348862 54.99766929 1.90012524 62 2 C62 2.33 62 2.66 62 3 C54.12437227 3.92077235 46.24792228 4.83402487 38.37035751 5.73806 C34.71132028 6.15820502 31.05260265 6.58079803 27.39453125 7.00927734 C23.85496664 7.42377951 20.3146742 7.83147022 16.77381134 8.23472595 C14.78615528 8.46280824 12.79928241 8.69768341 10.81243896 8.93273926 C-5.17264779 10.7388259 -5.17264779 10.7388259 -12 10 C-14 8 -14 8 -14.25 5.5 C-14 3 -14 3 -12 1 C-8.15899602 -0.47730922 -4.04749486 -0.06745825 0 0 Z " fill="#E6A062" transform="translate(32,40)"/>
<path d="M0 0 C2.18228751 0.01006111 4.36457956 0.01918136 6.546875 0.02734375 C11.82301817 0.04908322 17.09898686 0.08230707 22.375 0.125 C22.375 0.785 22.375 1.445 22.375 2.125 C21.44228271 2.15005615 20.50956543 2.1751123 19.54858398 2.20092773 C16.06150084 2.29652068 12.57455812 2.39572459 9.08764648 2.49731445 C7.58345501 2.54041126 6.07922252 2.58210207 4.57495117 2.62231445 C2.40270674 2.68063457 0.23066398 2.74414484 -1.94140625 2.80859375 C-3.24537354 2.84525146 -4.54934082 2.88190918 -5.89282227 2.91967773 C-9.61274505 3.07015218 -9.61274505 3.07015218 -13.22070312 3.63867188 C-16.46434757 4.10204965 -19.50480106 4.23961243 -22.77734375 4.22265625 C-23.88271484 4.21943359 -24.98808594 4.21621094 -26.12695312 4.21289062 C-27.26068359 4.20451172 -28.39441406 4.19613281 -29.5625 4.1875 C-31.30370117 4.18073242 -31.30370117 4.18073242 -33.08007812 4.17382812 C-35.92843934 4.16210647 -38.77669222 4.1456976 -41.625 4.125 C-41.955 3.465 -42.285 2.805 -42.625 2.125 C-28.38054764 0.11660241 -14.36799644 -0.11668768 0 0 Z " fill="#ED7C1B" transform="translate(232.625,28.875)"/>
<path d="M0 0 C1.60488281 0.00676758 1.60488281 0.00676758 3.2421875 0.01367188 C5.86984986 0.02540251 8.49739538 0.04181772 11.125 0.0625 C10.3125 2.5 10.3125 2.5 9.125 5.0625 C-1.73120409 8.6812347 -14.56706317 7.16485565 -25.875 7.0625 C-25.875 6.7325 -25.875 6.4025 -25.875 6.0625 C-19.44 5.5675 -19.44 5.5675 -12.875 5.0625 C-12.545 4.0725 -12.215 3.0825 -11.875 2.0625 C-13.855 2.0625 -15.835 2.0625 -17.875 2.0625 C-17.875 1.7325 -17.875 1.4025 -17.875 1.0625 C-11.93872979 -0.24183619 -6.04167748 -0.04836318 0 0 Z " fill="#E98530" transform="translate(107.875,34.9375)"/>
<path d="M0 0 C0 0.66 0 1.32 0 2 C13.365 2.495 13.365 2.495 27 3 C27 3.33 27 3.66 27 4 C22.39691466 4.71819377 17.90139678 5.1655292 13.24609375 5.31640625 C11.97830078 5.35830078 10.71050781 5.40019531 9.40429688 5.44335938 C8.09525391 5.48267578 6.78621094 5.52199219 5.4375 5.5625 C3.51454102 5.62727539 3.51454102 5.62727539 1.55273438 5.69335938 C-6.96959384 5.96438748 -15.47388586 6.05204391 -24 6 C-21 4 -21 4 -11 3 C-20.57 2.67 -30.14 2.34 -40 2 C-40 1.67 -40 1.34 -40 1 C-35.77099181 0.82914934 -31.54177453 0.66411448 -27.3125 0.5 C-26.13365234 0.45230469 -24.95480469 0.40460937 -23.74023438 0.35546875 C-15.82236851 0.05176979 -7.92342558 -0.05950627 0 0 Z " fill="#E6944C" transform="translate(667,51)"/>
<path d="M0 0 C0 0.66 0 1.32 0 2 C-3.60410953 2.82666631 -6.92198007 3.12201844 -10.61645508 3.11352539 C-11.71721878 3.11344986 -12.81798248 3.11337433 -13.95210266 3.11329651 C-15.71797981 3.10555458 -15.71797981 3.10555458 -17.51953125 3.09765625 C-18.73323898 3.0962413 -19.94694672 3.09482635 -21.19743347 3.09336853 C-25.06914752 3.08777665 -28.94080347 3.07522558 -32.8125 3.0625 C-35.43945229 3.05748395 -38.06640549 3.05292123 -40.69335938 3.04882812 C-47.12892603 3.03780987 -53.56445886 3.02107976 -60 3 C-59.67 2.34 -59.34 1.68 -59 1 C-39.32825684 0.36236419 -19.68471377 -0.18958459 0 0 Z " fill="#ED7B1B" transform="translate(349,26)"/>
<path d="M0 0 C0 0.33 0 0.66 0 1 C-6.01439135 2.56363129 -11.53074927 3.2766454 -17.734375 3.15625 C-18.57716003 3.14815308 -19.41994507 3.14005615 -20.28826904 3.13171387 C-23.19246391 3.09972207 -26.096071 3.05054707 -29 3 C-31.28840858 2.96595176 -33.57682019 2.932107 -35.86523438 2.8984375 C-43.32715899 2.7825621 -50.78854008 2.64227765 -58.25 2.5 C-60.85676771 2.45165442 -63.46353854 2.40347624 -66.0703125 2.35546875 C-72.38024541 2.23890456 -78.69013709 2.12029101 -85 2 C-85 1.67 -85 1.34 -85 1 C-76.57518264 0.8679692 -68.15034324 0.73748293 -59.7254734 0.60884857 C-55.81143671 0.54904148 -51.89740892 0.48874651 -47.98339844 0.42724609 C-14.703597 -0.09501517 -14.703597 -0.09501517 0 0 Z " fill="#F1BF8F" transform="translate(229,72)"/>
<path d="M0 0 C0 0.33 0 0.66 0 1 C-7.33752736 1.39522919 -14.67524781 1.78665355 -22.0132246 2.17345428 C-25.42192056 2.35324895 -28.83054159 2.53426793 -32.23901367 2.71826172 C-36.17346558 2.93059122 -40.10820497 3.1372776 -44.04296875 3.34375 C-45.24455124 3.40937134 -46.44613373 3.47499268 -47.68412781 3.54260254 C-55.4634778 3.94532325 -63.21069063 4.07637222 -71 4 C-66.46688831 1.64636321 -62.49783297 1.29611794 -57.4375 0.875 C-55.93993164 0.74762451 -55.93993164 0.74762451 -54.41210938 0.61767578 C-36.331685 -0.6907067 -18.1140851 -0.16120147 0 0 Z " fill="#E9A76A" transform="translate(635,57)"/>
<path d="M0 0 C0 0.33 0 0.66 0 1 C-8.13703105 1.52604738 -16.27431616 2.04790191 -24.41194534 2.56460571 C-28.19175466 2.804735 -31.97146545 3.04623396 -35.75097656 3.29101562 C-39.40771729 3.52779287 -43.064683 3.76077314 -46.72182465 3.99127197 C-48.10753536 4.0792501 -49.49316422 4.16852881 -50.87870026 4.25921631 C-59.26578943 4.80716041 -67.59462393 5.12361929 -76 5 C-76 4.67 -76 4.34 -76 4 C-50.66819979 0.3283742 -25.5635528 -0.2054948 0 0 Z " fill="#E9AA72" transform="translate(500,64)"/>
<path d="M0 0 C1.47583955 0.0001591 2.95168467 0.00585225 4.42749023 0.01586914 C5.20293686 0.01728409 5.97838348 0.01869904 6.77732849 0.02015686 C9.26361893 0.02577194 11.74982059 0.03832693 14.23608398 0.05102539 C15.91772331 0.05603845 17.59936405 0.06060169 19.28100586 0.06469727 C23.41189965 0.07574626 27.54272674 0.09302094 31.67358398 0.11352539 C31.67358398 0.44352539 31.67358398 0.77352539 31.67358398 1.11352539 C23.6150582 1.63847024 15.55633689 2.16026277 7.49735355 2.6781311 C3.75448269 2.9187444 0.01168594 3.16040655 -3.73095703 3.40454102 C-7.34882916 3.64049662 -10.96687528 3.87359869 -14.5850544 4.10479736 C-15.95926928 4.19309766 -17.33342065 4.28239272 -18.70750237 4.3727417 C-25.92784432 4.84683312 -33.08981314 5.22395519 -40.32641602 5.11352539 C-37.47869572 2.26580509 -34.55645535 2.67462733 -30.72875977 2.51586914 C-29.97929581 2.47667862 -29.22983185 2.4374881 -28.45765686 2.39710999 C-26.06009306 2.27286585 -23.66216619 2.16116014 -21.26391602 2.05102539 C-18.8622272 1.93570021 -16.46074829 1.81768749 -14.0594635 1.69422913 C-12.56397905 1.61783969 -11.06822884 1.5464648 -9.57225037 1.48045349 C-5.94935215 1.30037337 -3.44576127 0.11759846 0 0 Z " fill="#ECAD74" transform="translate(157.326416015625,34.886474609375)"/>
<path d="M0 0 C0 0.66 0 1.32 0 2 C-4.93990474 3.29666891 -9.82837129 3.12624049 -14.89453125 3.09765625 C-15.84188644 3.0962413 -16.78924164 3.09482635 -17.76530457 3.09336853 C-20.78106895 3.08778611 -23.79675818 3.07523682 -26.8125 3.0625 C-28.86132705 3.05748273 -30.91015527 3.05292022 -32.95898438 3.04882812 C-37.97268506 3.03782243 -42.9863298 3.02056988 -48 3 C-44.36253536 1.03407588 -41.69925066 0.69992327 -37.5390625 0.5859375 C-36.26160156 0.54726563 -34.98414063 0.50859375 -33.66796875 0.46875 C-32.32031373 0.4374471 -30.97265747 0.40619728 -29.625 0.375 C-28.32949219 0.33632813 -27.03398438 0.29765625 -25.69921875 0.2578125 C-17.13022297 0.01812031 -8.57181817 -0.04496582 0 0 Z " fill="#EB7C1B" transform="translate(833,46)"/>
<path d="M0 0 C1.21236328 0.02707031 1.21236328 0.02707031 2.44921875 0.0546875 C3.37154297 0.08949219 3.37154297 0.08949219 4.3125 0.125 C4.6425 0.785 4.9725 1.445 5.3125 2.125 C1.6825 2.455 -1.9475 2.785 -5.6875 3.125 C-5.6875 5.435 -5.6875 7.745 -5.6875 10.125 C-4.7586499 9.96201416 -3.8297998 9.79902832 -2.87280273 9.63110352 C2.16889931 8.91510021 7.19465997 9.00089737 12.27734375 9.02734375 C13.31065323 9.0287587 14.34396271 9.03017365 15.40858459 9.03163147 C18.6890866 9.03720161 21.96951883 9.04974859 25.25 9.0625 C27.48242089 9.06751886 29.71484285 9.07208109 31.94726562 9.07617188 C37.40236731 9.08716125 42.85742867 9.1038695 48.3125 9.125 C48.3125 9.455 48.3125 9.785 48.3125 10.125 C47.76650146 10.13530746 47.22050293 10.14561493 46.65795898 10.15623474 C40.94715783 10.26487379 35.23649634 10.37942066 29.52587891 10.49731445 C27.3979791 10.54048033 25.27004874 10.58216738 23.14208984 10.62231445 C20.07379978 10.68046408 17.00566094 10.74402707 13.9375 10.80859375 C12.52295532 10.83366249 12.52295532 10.83366249 11.07983398 10.85923767 C6.93156051 10.95113538 2.88495575 11.13074038 -1.2265625 11.70727539 C-4.6875 12.125 -4.6875 12.125 -6.6875 11.125 C-8.23745952 8.02508095 -8.0580824 5.52200537 -7.6875 2.125 C-4.48369983 -0.01086678 -3.66810033 -0.10632175 0 0 Z " fill="#F0C094" transform="translate(122.6875,72.875)"/>
<path d="M0 0 C-3.79163027 2.52775351 -6.80874031 2.22443035 -11.1875 2.125 C-11.93708984 2.11597656 -12.68667969 2.10695312 -13.45898438 2.09765625 C-15.30612654 2.07412578 -17.15310412 2.03825561 -19 2 C-19 2.66 -19 3.32 -19 4 C-27.91 4 -36.82 4 -46 4 C-42.12041175 2.06020588 -40.18474152 1.65742874 -35.9765625 1.3671875 C-34.78933594 1.28339844 -33.60210937 1.19960938 -32.37890625 1.11328125 C-31.14011719 1.03464844 -29.90132812 0.95601562 -28.625 0.875 C-27.42488281 0.78863281 -26.22476563 0.70226562 -24.98828125 0.61328125 C-16.64009273 0.04836624 -8.36506296 -0.100977 0 0 Z " fill="#E59E5F" transform="translate(147,31)"/>
<path d="M0 0 C4.95 0 9.9 0 15 0 C15 1.32 15 2.64 15 4 C-6.45 4 -27.9 4 -50 4 C-50 3.67 -50 3.34 -50 3 C-29.54 3 -9.08 3 12 3 C12 2.34 12 1.68 12 1 C8.04 1 4.08 1 0 1 C0 0.67 0 0.34 0 0 Z " fill="#DE8538" transform="translate(820,14)"/>
<path d="M0 0 C10.23 0 20.46 0 31 0 C31 1.98 31 3.96 31 6 C27.04 6 23.08 6 19 6 C22.99110319 4.0044484 24.69986566 3.80453935 29 4 C29 3.01 29 2.02 29 1 C19.43 1 9.86 1 0 1 C0 0.67 0 0.34 0 0 Z " fill="#EFB684" transform="translate(805,44)"/>
<path d="M0 0 C0.93779297 0.00322266 1.87558594 0.00644531 2.84179688 0.00976562 C4.30649414 0.02233398 4.30649414 0.02233398 5.80078125 0.03515625 C6.78884766 0.03966797 7.77691406 0.04417969 8.79492188 0.04882812 C11.23443599 0.06061322 13.67382814 0.07706614 16.11328125 0.09765625 C16.11328125 0.42765625 16.11328125 0.75765625 16.11328125 1.09765625 C7.36324407 2.70159105 -0.99419579 3.3596291 -9.88671875 3.09765625 C-6.80878016 0.01971766 -4.15411564 -0.02517646 0 0 Z " fill="#E5944B" transform="translate(417.88671875,66.90234375)"/>
<path d="M0 0 C7.92 0 15.84 0 24 0 C24 0.66 24 1.32 24 2 C20.32612505 2.85298376 16.9552607 3.10789471 13.1875 3.0625 C12.21167969 3.05347656 11.23585938 3.04445313 10.23046875 3.03515625 C9.49441406 3.02355469 8.75835937 3.01195312 8 3 C8 2.67 8 2.34 8 2 C5.36 1.67 2.72 1.34 0 1 C0 0.67 0 0.34 0 0 Z " fill="#E67E22" transform="translate(325,26)"/>
<path d="M0 0 C0 0.33 0 0.66 0 1 C-4.1196377 2.29243536 -7.66831683 3.26252625 -12 3 C-11.67 4.65 -11.34 6.3 -11 8 C-7.37 8.33 -3.74 8.66 0 9 C0 9.33 0 9.66 0 10 C-1.95803507 10.05389087 -3.91648909 10.09274217 -5.875 10.125 C-6.96554688 10.14820313 -8.05609375 10.17140625 -9.1796875 10.1953125 C-12 10 -12 10 -14 8 C-14.25 5.5 -14.25 5.5 -14 3 C-10.07503936 -0.92496064 -5.24412188 -0.08740203 0 0 Z " fill="#EDB47F" transform="translate(32,40)"/>
<path d="M0 0 C0.87011719 0.00451172 1.74023438 0.00902344 2.63671875 0.01367188 C4.75784293 0.0253264 6.8789311 0.04325643 9 0.0625 C9 0.3925 9 0.7225 9 1.0625 C8.24074219 1.12308594 7.48148438 1.18367188 6.69921875 1.24609375 C5.70535156 1.32988281 4.71148437 1.41367187 3.6875 1.5 C2.70136719 1.58121094 1.71523438 1.66242187 0.69921875 1.74609375 C-2.09375599 1.98062559 -2.09375599 1.98062559 -5 3.0625 C-7.232269 2.97632274 -9.46238486 2.82327759 -11.6875 2.625 C-12.86699219 2.52316406 -14.04648437 2.42132813 -15.26171875 2.31640625 C-16.61716797 2.19072266 -16.61716797 2.19072266 -18 2.0625 C-18 1.7325 -18 1.4025 -18 1.0625 C-11.95180188 0.17347088 -6.10776514 -0.06098383 0 0 Z " fill="#E79D5C" transform="translate(51,37.9375)"/>
<path d="M0 0 C3.63 0.66 7.26 1.32 11 2 C10.67 2.66 10.34 3.32 10 4 C5.71 4 1.42 4 -3 4 C-2.01 2.68 -1.02 1.36 0 0 Z " fill="#E57E24" transform="translate(143,33)"/>
<path d="M0 0 C0.79921875 0.01804687 1.5984375 0.03609375 2.421875 0.0546875 C3.02515625 0.07789062 3.6284375 0.10109375 4.25 0.125 C3.92 0.785 3.59 1.445 3.25 2.125 C-1.04942266 3.03449326 -4.49936599 3.28426382 -8.75 2.125 C-5.68753253 0.34090198 -3.52920727 -0.10380021 0 0 Z " fill="#E67E24" transform="translate(228.75,72.875)"/>
<path d="M0 0 C0 0.66 0 1.32 0 2 C-2.97 2 -5.94 2 -9 2 C-9.33 1.34 -9.66 0.68 -10 0 C-6.42355152 -1.2380014 -3.66305234 -0.74926071 0 0 Z " fill="#E07F28" transform="translate(30,47)"/>
<path d="M0 0 C4.95 0 9.9 0 15 0 C15 0.99 15 1.98 15 3 C14.01 3 13.02 3 12 3 C12 2.34 12 1.68 12 1 C8.04 1 4.08 1 0 1 C0 0.67 0 0.34 0 0 Z " fill="#D87F35" transform="translate(820,14)"/>
</svg>
