<?xml version="1.0" encoding="UTF-8"?>
<svg version="1.1" xmlns="http://www.w3.org/2000/svg" width="621" height="35">
<path d="M0 0 C20.15758282 0.45742056 40.31476959 0.71349962 60.47606516 0.93713403 C64.11385703 0.97768742 67.75163724 1.01923459 71.38941753 1.0608117 C87.32513549 1.2429304 103.26090428 1.42029346 119.19673157 1.59257507 C127.61875446 1.6836595 136.0407336 1.77806393 144.46267861 1.876091 C149.7371536 1.93729073 155.01165122 1.99440493 160.28620493 2.04837036 C163.53801964 2.08261026 166.78978024 2.12072998 170.04153824 2.15995789 C171.54355919 2.17730062 173.04559951 2.19305205 174.54765511 2.20707703 C176.59887287 2.22645748 178.64994434 2.25159153 180.70108032 2.27812195 C181.84607656 2.29065002 182.99107279 2.3031781 184.17076588 2.31608582 C187.30379093 2.46568096 190.25690849 2.92970429 193.34346008 3.46757507 C194.73894848 3.5486671 196.13722237 3.59377046 197.5350647 3.59455872 C198.70170151 3.59878845 198.70170151 3.59878845 199.89190674 3.60310364 C200.72581436 3.60107941 201.55972198 3.59905518 202.41889954 3.5969696 C203.75915192 3.59959808 203.75915192 3.59959808 205.1264801 3.60227966 C208.06992048 3.60666803 211.01330038 3.60377004 213.95674133 3.60038757 C216.01168835 3.60106166 218.06663529 3.60203256 220.12158203 3.60328674 C224.426262 3.60475978 228.7309212 3.60262245 233.03559875 3.59794617 C238.53643868 3.59225991 244.0372297 3.59552339 249.53806782 3.60151863 C253.78213871 3.60514406 258.02619814 3.60397637 262.27026939 3.60139084 C264.29753309 3.60072649 266.32479786 3.6015327 268.35206032 3.60387039 C271.19468029 3.6064283 274.03722279 3.60251188 276.87983704 3.5969696 C277.70767197 3.59899384 278.5355069 3.60101807 279.38842773 3.60310364 C283.23198036 3.58931846 286.97146695 3.4364369 290.78752136 2.96459961 C295.76974268 2.35888712 300.68854362 2.34923696 305.70210266 2.38578796 C306.70539706 2.38881204 307.70869146 2.39183611 308.74238873 2.39495182 C310.92444856 2.4020209 313.10650198 2.41135954 315.2885437 2.42271805 C318.82267872 2.44066129 322.35677737 2.45174466 325.89094543 2.46095276 C330.98861853 2.47436079 336.08628103 2.48950852 341.1839447 2.50611877 C354.63294034 2.54808424 368.0819017 2.57095947 381.53096008 2.56913757 C382.5534527 2.56900716 382.5534527 2.56900716 383.59660172 2.56887412 C416.23102664 2.55988705 448.84920524 1.96412126 481.47357368 1.16802979 C484.55326418 1.09301664 487.63298888 1.019572 490.71272278 0.94636536 C494.4452006 0.85757487 498.17735916 0.76109355 501.90950012 0.65919495 C503.54804503 0.61848031 505.18659456 0.57795102 506.82514954 0.53764343 C507.93694942 0.50419878 507.93694942 0.50419878 509.07120991 0.47007847 C514.11639146 0.35404076 514.11639146 0.35404076 516.34346008 1.46757507 C516.34346008 2.45757507 516.34346008 3.44757507 516.34346008 4.46757507 C501.50282251 6.06943519 486.76632624 6.59793176 471.85447502 6.51431274 C466.511075 6.4859448 461.16763673 6.47911096 455.82417297 6.47148132 C454.63147325 6.46961571 453.43877352 6.46775009 452.20993137 6.46582794 C436.01166102 6.4502622 419.81393287 6.56387378 403.61608386 6.66928101 C400.99740432 6.68631466 398.37872347 6.7031304 395.76004219 6.71989441 C385.98793886 6.78260321 376.21584944 6.84727327 366.4437657 6.91295815 C357.24581859 6.97471203 348.04785945 7.03457744 338.84989917 7.0943327 C320.01440599 7.21673876 301.17892812 7.34136235 282.34346008 7.46757507 C282.34346008 8.45757507 282.34346008 9.44757507 282.34346008 10.46757507 C301.73781582 11.68824427 321.09337235 12.67306081 340.53096008 12.65507507 C341.31184998 12.65580017 342.09273987 12.65652527 342.89729309 12.65727234 C351.24454217 12.9389607 351.24454217 12.9389607 359.34346008 11.46757507 C361.46187816 11.36811941 363.58331583 11.32928549 365.70405579 11.3223114 C367.02005264 11.31593155 368.3360495 11.3095517 369.69192505 11.30297852 C371.13436344 11.30144829 372.57680232 11.30033516 374.01924133 11.29960632 C375.50599194 11.29638995 376.99274223 11.29302559 378.47949219 11.28952026 C381.60415884 11.2835262 384.72879785 11.28168027 387.85346985 11.28227234 C391.8193084 11.2823731 395.78496445 11.26881179 399.75076008 11.25150013 C402.82838723 11.24026025 405.90597223 11.23835689 408.98361778 11.23888206 C410.4429556 11.2377164 411.90229503 11.23337605 413.36161232 11.2255497 C420.40610851 11.19135525 427.28040679 11.3476718 434.25483704 12.45610046 C442.4748678 13.75990477 450.59555028 13.82065834 458.89814758 13.88163757 C460.53724587 13.90040022 462.17633502 13.91997718 463.81541443 13.94032288 C468.07967171 13.99111288 472.34396013 14.03101872 476.60835266 14.06846619 C480.97976544 14.10884379 485.3510547 14.15978003 489.72236633 14.20976257 C498.26264576 14.30589054 506.8029876 14.39049205 515.34346008 14.46757507 C515.34346008 15.78757507 515.34346008 17.10757507 515.34346008 18.46757507 C507.58781369 18.49102113 499.832176 18.50865103 492.0765028 18.51938725 C488.47301139 18.52454697 484.8695447 18.5315144 481.2660675 18.54301453 C477.77118001 18.55409488 474.27631586 18.55990349 470.78141212 18.56245232 C468.83725843 18.565127 466.89311378 18.57289592 464.94897461 18.58087158 C458.00059936 18.58129487 451.11030309 18.38131895 444.17549133 17.97904968 C433.98763646 17.39171545 423.8156648 17.26268821 413.61299133 17.18632507 C411.66204951 17.16847329 409.71111161 17.15018751 407.76017761 17.13150024 C403.66420518 17.09283577 399.56822253 17.05634212 395.47221375 17.02174377 C384.87971969 16.93189363 374.28736654 16.82738797 363.69502258 16.72148132 C362.66118879 16.71124498 361.627355 16.70100864 360.56219292 16.69046211 C344.38222939 16.52878622 328.20743484 16.28489183 312.03096008 15.90507507 C308.43201459 15.82247632 304.83305544 15.74048937 301.23408508 15.65898132 C300.44152313 15.64101501 299.64896118 15.62304871 298.8323822 15.60453796 C285.33973152 15.30545981 271.8731119 15.33467678 258.38252258 15.69413757 C257.1588372 15.72663101 257.1588372 15.72663101 255.91043091 15.75978088 C251.91436281 15.86757575 247.91871967 15.98215321 243.92329407 16.11161804 C234.22615841 16.40912357 224.53645771 16.49153237 214.83508062 16.47351921 C197.94218793 16.44420025 181.05069322 16.51968151 164.15820408 16.6365726 C161.99798006 16.6515048 159.83775446 16.66618831 157.67752838 16.68081856 C150.84854978 16.72718451 144.01957925 16.77455788 137.1906178 16.82338566 C129.4304086 16.87885101 121.67018589 16.93070324 113.90993237 16.97956699 C107.8129651 17.01818844 101.71602591 17.06012846 95.61909747 17.10445362 C92.01839037 17.13055853 88.41768719 17.15539125 84.81694794 17.17664909 C70.2572003 17.26371476 55.73487738 17.49337879 41.19248962 18.23599243 C34.04890867 18.5950701 26.90504248 18.69562761 19.75361633 18.78398132 C18.2674832 18.80473237 16.78135351 18.82573057 15.29522705 18.84695435 C12.21424289 18.8902238 9.13324056 18.93119249 6.05220032 18.97026062 C2.20746849 19.0191044 -1.63717428 19.07287586 -5.48181725 19.12822914 C-25.5411593 19.41520743 -45.59519665 19.52883992 -65.65653992 19.46757507 C-65.65653992 15.46757507 -65.65653992 15.46757507 -64.65653992 14.46757507 C-61.64904671 14.40198196 -58.66345763 14.4023815 -55.65653992 14.44023132 C-53.62081895 14.45462098 -51.58509249 14.46824616 -49.54936218 14.48124695 C-47.88177353 14.49369446 -47.88177353 14.49369446 -46.18049622 14.50639343 C-27.39463702 14.63263789 -8.62800409 14.50426532 10.15205383 14.02616882 C11.01505285 14.00429001 11.87805187 13.98241119 12.76720238 13.95986938 C17.25873773 13.84543 21.7502195 13.72898696 26.24168396 13.61180115 C66.21730481 12.57002679 106.15974843 12.28995751 146.14868164 12.44155025 C150.46770017 12.45758483 154.78672649 12.47049704 159.10575485 12.48356819 C162.05288054 12.49452121 164.99991635 12.51183668 167.94700623 12.52981567 C183.6878597 12.76882845 183.6878597 12.76882845 199.34346008 11.46757507 C199.67346008 10.80757507 200.00346008 10.14757507 200.34346008 9.46757507 C199.68346008 9.46757507 199.02346008 9.46757507 198.34346008 9.46757507 C198.34346008 8.80757507 198.34346008 8.14757507 198.34346008 7.46757507 C197.19152161 7.47265076 196.03958313 7.47772644 194.85273743 7.48295593 C179.93882031 7.52668923 165.02999456 7.33219362 150.11836243 7.09526062 C146.69067036 7.04089117 143.26293459 6.99033297 139.83516884 6.94085789 C137.09228029 6.90067328 134.34943488 6.85794578 131.60659409 6.81463432 C129.7626905 6.78600255 127.91875289 6.75958584 126.07481384 6.7333374 C119.60666069 6.62682469 113.14467817 6.46638084 106.67979431 6.22953796 C87.44849313 5.5317014 68.24839456 5.31726249 49.00533915 5.33324957 C44.88439281 5.3358431 40.7634483 5.33341771 36.64250183 5.3318634 C29.75668425 5.33006605 22.87087756 5.33238766 15.98506165 5.33720398 C8.05080915 5.34268987 0.11658218 5.34084312 -7.81766975 5.33537757 C-14.69396459 5.33083313 -21.57025177 5.33020099 -28.44654763 5.33281624 C-32.52700541 5.33436559 -36.60745118 5.33460894 -40.68790817 5.33127975 C-44.50496686 5.3283799 -48.32199249 5.33041536 -52.13904762 5.33617401 C-53.53176761 5.33748823 -54.92449041 5.33713043 -56.31720924 5.33491135 C-63.52382482 5.32449078 -70.50891993 5.54877955 -77.65653992 6.46757507 C-80.51331597 6.56762637 -83.36101947 6.56489632 -86.21903992 6.53007507 C-86.94155945 6.52556335 -87.66407898 6.52105164 -88.40849304 6.5164032 C-90.15787935 6.50481786 -91.9072219 6.4868927 -93.65653992 6.46757507 C-93.65653992 5.47757507 -93.65653992 4.48757507 -93.65653992 3.46757507 C-90.38371458 1.28569151 -89.25014592 1.17938416 -85.43388367 1.0410614 C-83.81921204 0.9763842 -83.81921204 0.9763842 -82.17192078 0.91040039 C-80.99122009 0.87383835 -79.81051941 0.83727631 -78.59403992 0.79960632 C-77.34308533 0.75567245 -76.09213074 0.71173859 -74.80326843 0.66647339 C-72.11636919 0.57523322 -69.42967634 0.48810227 -66.74247742 0.40727234 C-62.83803519 0.28893137 -58.93498008 0.14080046 -55.03153992 -0.0070343 C-36.66826971 -0.63786688 -18.36632277 -0.42122031 0 0 Z " fill="#FEF7E8" transform="translate(99.65653991699219,5.5324249267578125)"/>
<path d="M0 0 C20.15758282 0.45742056 40.31476959 0.71349962 60.47606516 0.93713403 C64.11385703 0.97768742 67.75163724 1.01923459 71.38941753 1.0608117 C87.32513549 1.2429304 103.26090428 1.42029346 119.19673157 1.59257507 C127.61875446 1.6836595 136.0407336 1.77806393 144.46267861 1.876091 C149.7371536 1.93729073 155.01165122 1.99440493 160.28620493 2.04837036 C163.53801964 2.08261026 166.78978024 2.12072998 170.04153824 2.15995789 C171.54355919 2.17730062 173.04559951 2.19305205 174.54765511 2.20707703 C176.59887287 2.22645748 178.64994434 2.25159153 180.70108032 2.27812195 C181.84607656 2.29065002 182.99107279 2.3031781 184.17076588 2.31608582 C187.30379093 2.46568096 190.25690849 2.92970429 193.34346008 3.46757507 C194.73894848 3.5486671 196.13722237 3.59377046 197.5350647 3.59455872 C198.70170151 3.59878845 198.70170151 3.59878845 199.89190674 3.60310364 C200.72581436 3.60107941 201.55972198 3.59905518 202.41889954 3.5969696 C203.75915192 3.59959808 203.75915192 3.59959808 205.1264801 3.60227966 C208.06992048 3.60666803 211.01330038 3.60377004 213.95674133 3.60038757 C216.01168835 3.60106166 218.06663529 3.60203256 220.12158203 3.60328674 C224.426262 3.60475978 228.7309212 3.60262245 233.03559875 3.59794617 C238.53643868 3.59225991 244.0372297 3.59552339 249.53806782 3.60151863 C253.78213871 3.60514406 258.02619814 3.60397637 262.27026939 3.60139084 C264.29753309 3.60072649 266.32479786 3.6015327 268.35206032 3.60387039 C271.19468029 3.6064283 274.03722279 3.60251188 276.87983704 3.5969696 C277.70767197 3.59899384 278.5355069 3.60101807 279.38842773 3.60310364 C283.23198036 3.58931846 286.97146695 3.4364369 290.78752136 2.96459961 C295.76974268 2.35888712 300.68854362 2.34923696 305.70210266 2.38578796 C306.70539706 2.38881204 307.70869146 2.39183611 308.74238873 2.39495182 C310.92444856 2.4020209 313.10650198 2.41135954 315.2885437 2.42271805 C318.82267872 2.44066129 322.35677737 2.45174466 325.89094543 2.46095276 C330.98861853 2.47436079 336.08628103 2.48950852 341.1839447 2.50611877 C354.63294034 2.54808424 368.0819017 2.57095947 381.53096008 2.56913757 C382.5534527 2.56900716 382.5534527 2.56900716 383.59660172 2.56887412 C416.23102664 2.55988705 448.84920524 1.96412126 481.47357368 1.16802979 C484.55326418 1.09301664 487.63298888 1.019572 490.71272278 0.94636536 C494.4452006 0.85757487 498.17735916 0.76109355 501.90950012 0.65919495 C503.54804503 0.61848031 505.18659456 0.57795102 506.82514954 0.53764343 C507.93694942 0.50419878 507.93694942 0.50419878 509.07120991 0.47007847 C514.11639146 0.35404076 514.11639146 0.35404076 516.34346008 1.46757507 C516.34346008 2.45757507 516.34346008 3.44757507 516.34346008 4.46757507 C501.08185874 6.11487294 485.93156125 6.60210364 470.59636772 6.52842438 C465.19252535 6.50309925 459.78863958 6.49662731 454.38475037 6.48707581 C453.2425726 6.484618 452.10039483 6.48216019 450.92360562 6.47962791 C437.83342421 6.45492865 424.74377271 6.51322019 411.65376282 6.57524109 C409.13091575 6.58680102 406.60806858 6.59833605 404.08522129 6.60984707 C398.86092409 6.63389012 393.63662972 6.65847394 388.41233635 6.68333626 C380.0274132 6.72312574 371.64247733 6.75977044 363.25753784 6.79592896 C361.80614278 6.80220101 360.35474773 6.80847399 358.90335268 6.81474787 C355.97127982 6.82741586 353.03920691 6.84007125 350.10713398 6.85272205 C342.67036469 6.88482741 335.23359632 6.9171409 327.79682922 6.94975281 C326.68377786 6.9546322 326.68377786 6.9546322 325.54824061 6.95961016 C313.57007104 7.01224215 301.59192253 7.06876008 289.6137768 7.12653328 C277.11851847 7.18668616 264.62324396 7.24172937 252.12794453 7.29263061 C245.19161324 7.321033 238.25530682 7.35149466 231.3190136 7.38810921 C202.00801508 7.540754 172.70981405 7.49594462 143.40229797 7.03764343 C142.10752435 7.01780934 140.81275072 6.99797526 139.47874153 6.97754014 C125.3282477 6.75440961 111.18592862 6.42021337 97.04214478 5.94003296 C86.39135816 5.57887428 75.76262188 5.32141075 65.10566711 5.33818054 C63.62803098 5.33681455 62.1503952 5.33502812 60.67276001 5.33287048 C56.78361064 5.32844669 52.89448879 5.33001847 49.00533915 5.33324957 C44.88439281 5.3358431 40.7634483 5.33341771 36.64250183 5.3318634 C29.75668425 5.33006605 22.87087756 5.33238766 15.98506165 5.33720398 C8.05080915 5.34268987 0.11658218 5.34084312 -7.81766975 5.33537757 C-14.69396459 5.33083313 -21.57025177 5.33020099 -28.44654763 5.33281624 C-32.52700541 5.33436559 -36.60745118 5.33460894 -40.68790817 5.33127975 C-44.50496686 5.3283799 -48.32199249 5.33041536 -52.13904762 5.33617401 C-53.53176761 5.33748823 -54.92449041 5.33713043 -56.31720924 5.33491135 C-63.52382482 5.32449078 -70.50891993 5.54877955 -77.65653992 6.46757507 C-80.51331597 6.56762637 -83.36101947 6.56489632 -86.21903992 6.53007507 C-86.94155945 6.52556335 -87.66407898 6.52105164 -88.40849304 6.5164032 C-90.15787935 6.50481786 -91.9072219 6.4868927 -93.65653992 6.46757507 C-93.65653992 5.47757507 -93.65653992 4.48757507 -93.65653992 3.46757507 C-90.38371458 1.28569151 -89.25014592 1.17938416 -85.43388367 1.0410614 C-83.81921204 0.9763842 -83.81921204 0.9763842 -82.17192078 0.91040039 C-80.99122009 0.87383835 -79.81051941 0.83727631 -78.59403992 0.79960632 C-77.34308533 0.75567245 -76.09213074 0.71173859 -74.80326843 0.66647339 C-72.11636919 0.57523322 -69.42967634 0.48810227 -66.74247742 0.40727234 C-62.83803519 0.28893137 -58.93498008 0.14080046 -55.03153992 -0.0070343 C-36.66826971 -0.63786688 -18.36632277 -0.42122031 0 0 Z " fill="#F3DCBD" transform="translate(99.65653991699219,5.5324249267578125)"/>
<path d="M0 0 C0.86234487 0.00037972 1.72468974 0.00075944 2.61316627 0.00115067 C3.60444166 -0.00084038 4.59571706 -0.00283143 5.6170311 -0.00488281 C6.71914757 -0.00196997 7.82126405 0.00094287 8.95677799 0.00394398 C10.11736129 0.00308955 11.27794458 0.00223513 12.47369707 0.00135481 C15.70949941 -0.00001334 18.94526223 0.00313402 22.1810599 0.00813287 C25.6650558 0.01243415 29.14904971 0.01099118 32.63304752 0.0102306 C38.67408862 0.00970516 44.71511895 0.01285405 50.75615734 0.01846844 C59.49058348 0.02658073 68.2250044 0.02919838 76.95943391 0.03045643 C91.12899731 0.03264738 105.29855498 0.03930862 119.46811527 0.04875904 C133.23601862 0.05793206 147.00392042 0.06501343 160.77182621 0.06926686 C161.61987023 0.06952958 162.46791425 0.0697923 163.34165657 0.07006299 C167.59586217 0.07136798 171.85006777 0.0726317 176.10427338 0.07387489 C211.42111474 0.08424883 246.73794944 0.10186831 282.05478519 0.1241985 C282.05478519 0.4541985 282.05478519 0.7841985 282.05478519 1.1241985 C263.96328042 2.00376063 245.89237268 2.30870893 227.78207463 2.39458996 C224.10624721 2.41319569 220.43045701 2.43745143 216.75466007 2.46123463 C206.67306402 2.52550582 196.59142586 2.58152866 186.50977939 2.63722187 C177.23864716 2.68850527 167.96753566 2.74168533 158.6964556 2.80174738 C155.06543249 2.82506969 151.43441822 2.84666687 147.8033604 2.86383778 C133.14756072 2.93350835 118.53089341 3.13926568 103.89269108 3.89137989 C96.75289253 4.2530742 89.612702 4.35229632 82.46494144 4.44060475 C80.97880831 4.46135579 79.49267861 4.48235399 78.00655216 4.50357777 C74.92556799 4.54684722 71.84456567 4.58781591 68.76352543 4.62688404 C64.91879359 4.67572782 61.07415083 4.72949929 57.22950786 4.78485256 C37.17016581 5.07183085 17.11612846 5.18546335 -2.94521481 5.1241985 C-2.94521481 0.18804671 -2.94521481 0.18804671 0 0 Z " fill="#E0A16A" transform="translate(36.94521480798721,19.875801503658295)"/>
<path d="M0 0 C28.38 0 56.76 0 86 0 C86 1.33333333 86 2.66666667 86 4 C93.59 4.33 101.18 4.66 109 5 C109 5.33 109 5.66 109 6 C80.79295152 7.00130761 52.59605817 7.08892421 24.375 7.0625 C23.45432739 7.06164398 22.53365479 7.06078796 21.58508301 7.05990601 C10.05670264 7.04840139 -1.47164852 7.02816341 -13 7 C-13 6.67 -13 6.34 -13 6 C-11.85660156 5.95101563 -10.71320313 5.90203125 -9.53515625 5.8515625 C-8.04424527 5.77654811 -6.55336108 5.70099972 -5.0625 5.625 C-4.30775391 5.5940625 -3.55300781 5.563125 -2.77539062 5.53125 C-0.84492605 5.4273685 1.07942081 5.22104386 3 5 C3.33 4.34 3.66 3.68 4 3 C3.34 3 2.68 3 2 3 C2 2.34 2 1.68 2 1 C1.34 0.67 0.68 0.34 0 0 Z " fill="#FEFDF5" transform="translate(296,12)"/>
<path d="M0 0 C0.70455165 -0.00345932 1.4091033 -0.00691864 2.135005 -0.01048279 C4.52018938 -0.01928969 6.90509421 -0.01323838 9.2902832 -0.00683594 C11.02182092 -0.0088758 12.75335797 -0.01155959 14.4848938 -0.01483154 C19.26386359 -0.02032637 24.04270694 -0.01111084 28.82165909 0.00164795 C31.83638141 0.00877799 34.8510845 0.0120292 37.86581421 0.01416016 C96.63353266 0.06525732 155.39699164 1.20359218 214.15356445 2.25878906 C214.15356445 2.58878906 214.15356445 2.91878906 214.15356445 3.25878906 C212.62761957 3.26513697 212.62761957 3.26513697 211.07084751 3.27161312 C186.30745211 3.37484822 161.54408561 3.48360201 136.78073978 3.59812832 C124.80533369 3.65338505 112.82992462 3.70685455 100.85449219 3.75610352 C90.41561639 3.79903794 79.97676185 3.84533908 69.53791898 3.89566761 C64.01166076 3.92219406 58.48540654 3.94704503 52.95912361 3.96786308 C47.75453057 3.98752252 42.54997772 4.01169348 37.34542084 4.03927994 C35.43832826 4.04860128 33.5312269 4.05629395 31.62412071 4.06220818 C29.0129251 4.07055354 26.40182487 4.08485254 23.79066467 4.10057068 C23.04258153 4.10154879 22.2944984 4.10252689 21.52374607 4.10353464 C17.04778079 4.13799238 12.68695205 4.46885212 8.24629396 5.03606468 C4.69711005 5.41379615 1.15593143 5.36472231 -2.40893555 5.32128906 C-3.13145508 5.31677734 -3.85397461 5.31226563 -4.59838867 5.30761719 C-6.34777498 5.29603185 -8.09711753 5.27810668 -9.84643555 5.25878906 C-9.84643555 4.26878906 -9.84643555 3.27878906 -9.84643555 2.25878906 C-6.16754427 -0.19380512 -4.39032292 0.00554695 0 0 Z " fill="#DEA878" transform="translate(15.846435546875,6.7412109375)"/>
<path d="M0 0 C4.59490059 -0.00084515 9.18979834 -0.00376582 13.78469789 -0.00683648 C26.15507872 -0.01504408 38.5254525 -0.01888892 50.89583596 -0.01816674 C51.58807705 -0.01812679 52.28031814 -0.01808683 52.99353623 -0.01804566 C53.68664658 -0.01800478 54.37975693 -0.0179639 55.09387062 -0.01792178 C66.44664804 -0.01751108 77.79939299 -0.02721018 89.15216096 -0.04118403 C100.90127946 -0.05552954 112.65038201 -0.0624562 124.39950949 -0.06159025 C130.96059794 -0.06133564 137.5216489 -0.06417089 144.08272958 -0.0747683 C150.21048025 -0.08440643 156.338157 -0.08455827 162.4659102 -0.07725167 C164.71378841 -0.0762025 166.96167117 -0.0785883 169.20954156 -0.08461213 C172.26886891 -0.09228374 175.32793734 -0.08772054 178.38725877 -0.07998109 C179.28126631 -0.08512465 180.17527386 -0.09026821 181.09637254 -0.09556764 C181.91485023 -0.09096885 182.73332791 -0.08637005 183.57660794 -0.0816319 C184.28171244 -0.08184927 184.98681694 -0.08206663 185.71328825 -0.08229059 C188.04031326 0.20981215 189.67146693 1.0202877 191.70129991 2.16725707 C191.07380342 2.17756454 190.44630692 2.187872 189.79979539 2.19849181 C148.63179466 2.87055658 148.63179466 2.87055658 107.47058702 3.86232543 C100.54523554 4.05574191 93.62975447 4.22187327 86.70129991 4.16725707 C86.70129991 3.50725707 86.70129991 2.84725707 86.70129991 2.16725707 C24.99129991 2.16725707 -36.71870009 2.16725707 -100.29870009 2.16725707 C-100.29870009 1.83725707 -100.29870009 1.50725707 -100.29870009 1.16725707 C-66.86309238 0.29260331 -33.44626975 0.00347201 0 0 Z " fill="#E8C19E" transform="translate(232.29870009422302,17.832742929458618)"/>
<path d="M0 0 C12.43748861 -0.03155216 24.87497673 -0.0512985 37.3125 -0.0625 C38.72781887 -0.06378403 38.72781887 -0.06378403 40.17173004 -0.06509399 C72.40901201 -0.0908331 104.64002793 0.11987869 136.875 0.5 C138.3968157 0.51793673 138.3968157 0.51793673 139.94937515 0.53623581 C152.29969108 0.68254858 164.64989363 0.83697613 177 1 C177 1.99 177 2.98 177 4 C169.2443536 4.02344605 161.48871592 4.04107596 153.73304272 4.05181217 C150.12955131 4.0569719 146.52608461 4.06393932 142.92260742 4.07543945 C139.42771993 4.08651981 135.93285578 4.09232841 132.43795204 4.09487724 C130.49379835 4.09755193 128.5496537 4.10532085 126.60551453 4.11329651 C119.64865766 4.11372032 112.74951078 3.91346972 105.80615234 3.51147461 C96.65927596 2.98427857 87.53061472 2.81038612 78.36993217 2.73963928 C75.59740558 2.71807979 72.82497247 2.69112664 70.05250549 2.66296387 C63.1835523 2.59418373 56.31453172 2.53377109 49.44549561 2.47393799 C43.59581548 2.42273912 37.74619205 2.3678994 31.89659309 2.30812073 C29.1836383 2.28185552 26.47067678 2.26087553 23.75767517 2.2401123 C15.77756679 2.16643196 7.92977554 2.00540497 0 1 C0 0.67 0 0.34 0 0 Z " fill="#DEB590" transform="translate(438,20)"/>
<path d="M0 0 C0 0.99 0 1.98 0 3 C-22.67544051 5.27753857 -45.23724256 5.21661361 -68 5 C-67.34 4.34 -66.68 3.68 -66 3 C-77.88 2.67 -89.76 2.34 -102 2 C-102 1.67 -102 1.34 -102 1 C-89.58692207 0.71532145 -77.17372393 0.43672636 -64.76033592 0.16588497 C-58.99623907 0.0399301 -53.23220452 -0.08811541 -47.46826172 -0.22094727 C-41.9051875 -0.34907296 -36.34201665 -0.47169583 -30.77873611 -0.59051323 C-28.65684269 -0.6367971 -26.53499146 -0.68505964 -24.41318893 -0.73533821 C-21.44009776 -0.80545011 -18.46693399 -0.86850944 -15.49365234 -0.92993164 C-14.6175531 -0.95222839 -13.74145386 -0.97452515 -12.83880615 -0.99749756 C-8.42242603 -1.08113555 -4.35059733 -0.9117878 0 0 Z " fill="#EDC6A3" transform="translate(616,7)"/>
<path d="M0 0 C7.51235443 0.01146998 15.02471013 0.01674775 22.53707123 0.021703 C37.90574012 0.03196907 53.27439135 0.04938663 68.64304733 0.07202661 C68.64304733 0.73202661 68.64304733 1.39202661 68.64304733 2.07202661 C67.97256363 2.08233407 67.30207993 2.09264154 66.61127853 2.10326135 C59.56954173 2.21228466 52.52790858 2.32679171 45.48630905 2.44434106 C42.86588862 2.48738599 40.2454456 2.52907931 37.62498093 2.56934106 C33.83666325 2.62778939 30.04845616 2.69126018 26.26023483 2.75562036 C25.10756119 2.77233285 23.95488754 2.78904535 22.76728439 2.80626428 C17.10923035 2.90701481 11.50276011 3.13646187 5.86204147 3.59717309 C-2.26203144 4.21495873 -10.34087399 4.11552875 -18.47804642 3.98608911 C-20.11012582 3.96420163 -21.74221124 3.94275828 -23.37430191 3.92172754 C-26.78565551 3.87653512 -30.19692097 3.82741885 -33.60817337 3.77515161 C-37.87897236 3.7098191 -42.1498283 3.65207107 -46.42077065 3.59700906 C-67.40915456 3.32430968 -88.38089692 2.84641079 -109.35695267 2.07202661 C-109.35695267 1.74202661 -109.35695267 1.41202661 -109.35695267 1.07202661 C-72.90117883 0.07706995 -36.46551297 -0.05672681 0 0 Z " fill="#EDD4B6" transform="translate(291.3569526672363,8.92797338962555)"/>
<path d="M0 0 C1.14474792 0.00539291 1.14474792 0.00539291 2.31262207 0.01089478 C3.51253029 0.01067574 3.51253029 0.01067574 4.73667908 0.01045227 C7.39344958 0.01115161 10.05015086 0.01894498 12.70690918 0.02676392 C14.54393984 0.02862802 16.38097099 0.03005196 18.21800232 0.03105164 C23.06284955 0.03487742 27.90766701 0.04470821 32.75250244 0.05575562 C37.69237871 0.06596845 42.63225978 0.07054898 47.57214355 0.07559204 C57.27202646 0.08633042 66.97188722 0.10340756 76.67175293 0.12442017 C76.67175293 0.45442017 76.67175293 0.78442017 76.67175293 1.12442017 C51.92175293 2.11442017 51.92175293 2.11442017 26.67175293 3.12442017 C26.67175293 3.78442017 26.67175293 4.44442017 26.67175293 5.12442017 C15.78175293 5.12442017 4.89175293 5.12442017 -6.32824707 5.12442017 C-6.32824707 -0.75083741 -5.36951123 0.01067684 0 0 Z " fill="#F3D0AC" transform="translate(40.3282470703125,19.875579833984375)"/>
<path d="M0 0 C0.98858002 0.00703949 1.97716003 0.01407898 2.99569702 0.02133179 C4.0789476 0.0342778 5.16219818 0.04722382 6.27827454 0.06056213 C7.41988037 0.07016968 8.56148621 0.07977722 9.73768616 0.0896759 C13.51991339 0.1227185 17.30202701 0.16303098 21.08418274 0.2033844 C23.70305986 0.22768036 26.32194121 0.25152418 28.94082642 0.27493286 C35.13502322 0.33106345 41.32915679 0.39242283 47.52328473 0.4556542 C54.57517816 0.52738777 61.62712219 0.59330233 68.67907655 0.65872467 C83.18527067 0.79343197 97.69138761 0.93545808 112.19746399 1.08229065 C112.19746399 1.41229065 112.19746399 1.74229065 112.19746399 2.08229065 C98.61424278 2.25844234 85.03090883 2.42431925 71.44746399 2.58229065 C69.91626167 2.60010653 69.91626167 2.60010653 68.35412598 2.61828232 C36.38464827 2.98734749 4.41906736 3.17457323 -27.55253601 3.14479065 C-28.94109047 3.14350662 -28.94109047 3.14350662 -30.35769653 3.14219666 C-41.50599809 3.13109575 -52.65426717 3.11148188 -63.80253601 3.08229065 C-63.80253601 2.75229065 -63.80253601 2.42229065 -63.80253601 2.08229065 C-63.10762558 2.07198318 -62.41271515 2.06167572 -61.69674683 2.05105591 C-55.14891534 1.95309146 -48.60117273 1.85057848 -42.05349255 1.74295139 C-38.68723988 1.68777943 -35.32097844 1.63436868 -31.95463562 1.5849762 C-28.08483988 1.52732428 -24.21518457 1.46361496 -20.34550476 1.3986969 C-19.13605698 1.38198441 -17.92660919 1.36527191 -16.68051147 1.34805298 C-14.9991082 1.31813515 -14.9991082 1.31813515 -13.28373718 1.28761292 C-12.29556503 1.27206863 -11.30739288 1.25652435 -10.28927612 1.24050903 C-6.69775075 1.01199889 -3.67114712 -0.03541299 0 0 Z " fill="#CB9262" transform="translate(367.8025360107422,8.917709350585938)"/>
<path d="M0 0 C23.1 0 46.2 0 70 0 C70 0.33 70 0.66 70 1 C66.54239094 1.34113382 63.08382414 1.67143391 59.625 2 C58.65949219 2.09539063 57.69398438 2.19078125 56.69921875 2.2890625 C48.48814998 3.06057232 40.58884577 3.42574209 32.40234375 2.25830078 C26.46741891 1.62017573 20.46474814 1.60910208 14.5 1.4375 C13.09113527 1.39422263 11.68228093 1.35060569 10.2734375 1.30664062 C6.8490454 1.20109429 3.42458708 1.09898202 0 1 C0 0.67 0 0.34 0 0 Z " fill="#F9E9D5" transform="translate(306,12)"/>
<path d="M0 0 C25.35464532 -0.12976787 50.65935398 0.1287415 76 1 C76 1.33 76 1.66 76 2 C70.61063474 2.14393077 65.22123097 2.2862892 59.83178711 2.42724609 C58.00169782 2.47532567 56.1716194 2.52382076 54.34155273 2.57275391 C51.69778202 2.64336975 49.05397471 2.71244763 46.41015625 2.78125 C45.20021751 2.81406067 45.20021751 2.81406067 43.96583557 2.84753418 C38.64208665 2.98415951 33.32552762 3.01861259 28 3 C28 2.34 28 1.68 28 1 C18.76 1 9.52 1 0 1 C0 0.67 0 0.34 0 0 Z " fill="#E8CFB8" transform="translate(291,19)"/>
<path d="M0 0 C0 0.33 0 0.66 0 1 C-5.94 1.495 -5.94 1.495 -12 2 C-12 2.33 -12 2.66 -12 3 C-27.84 2.67 -43.68 2.34 -60 2 C-60 1.67 -60 1.34 -60 1 C-39.98757811 0.26315407 -20.02811316 -0.15409888 0 0 Z " fill="#EFD9C7" transform="translate(452,19)"/>
<path d="M0 0 C0 0.66 0 1.32 0 2 C2.64 2 5.28 2 8 2 C8 2.33 8 2.66 8 3 C-0.34332544 4.19190363 -8.59323022 4.09283549 -17 4 C-17 3.01 -17 2.02 -17 1 C-14.72926348 0.83201949 -12.45840707 0.66565887 -10.1875 0.5 C-8.29064453 0.36078125 -8.29064453 0.36078125 -6.35546875 0.21875 C-4.24021483 0.08085219 -2.11974408 0 0 0 Z " fill="#E4A26A" transform="translate(23,8)"/>
<path d="M0 0 C9.69527822 -0.19219715 19.32867432 0.40418676 29 1 C29 1.33 29 1.66 29 2 C19.43 2.33 9.86 2.66 0 3 C0 2.01 0 1.02 0 0 Z " fill="#D5843D" transform="translate(35,21)"/>
</svg>
